<?xml version="1.0" encoding="UTF-8"?>
<svg xmlns="http://www.w3.org/2000/svg" version="1.1" viewBox="0 0 187.1 99.5">
  <defs>
    <style>
      .cls-1 {
        fill: #fff;
      }
    </style>
  </defs>
  <!-- Generator: Adobe Illustrator 28.7.1, SVG Export Plug-In . SVG Version: 1.2.0 Build 142)  -->
  <g>
    <g id="Ebene_1">
      <g id="b">
        <g id="c">
          <g id="d">
            <path class="cls-1" d="M110.8,56.6c-.2-.3-.5-.5-.9-.5h-6.7c-1.1,0-1.8.4-2.1,1.3l-10,25.8-1.7-16c0-.3-.2-.7-.4-1-.2-.4-.6-.6-1.3-.6h-3.8c-.6,0-1.1.2-1.5.6s-.7.7-.9,1l-8.3,15.7.8-25.3c0-.5,0-.9-.3-1.1-.2-.2-.7-.4-1.2-.4h-6.2c-.4,0-.8,0-1,.4s-.4.6-.4,1l-1,39.5c0,.5,0,1,.4,1.3.3.4.8.6,1.4.6h5.1c.7,0,1.2-.2,1.6-.5s.7-.7.9-1.1l10-18.9,2.9,18.9c0,.4.2.7.5,1.1.3.3.7.5,1.4.5h5.1c.7,0,1.2-.2,1.7-.6s.8-.8,1-1.3l14.9-39.4c.2-.4.2-.7,0-1Z"/>
            <path class="cls-1" d="M147.8,76.9c-.2-.2-.4-.3-.8-.3h-5.3c-.7,0-1.2.3-1.5,1-.9,1.9-1.8,3.5-2.7,4.7s-1.6,2.2-2.1,2.9l-6.4-8c1.9-1,3.6-2,5.1-3.1s2.8-2.2,3.9-3.6c1-1.3,1.7-2.8,2.1-4.5.4-1.9.3-3.6-.4-5.2s-1.8-2.9-3.4-3.8c-1.6-1-3.8-1.4-6.4-1.4s-5.2.5-7.3,1.5c-2.1,1-3.8,2.3-5.1,3.9-1.3,1.6-2.2,3.3-2.6,5.2-.3,1.6-.3,3.1,0,4.5.4,1.5,1.2,3.1,2.5,4.9-1.9.9-3.6,2-5,3.1-1.5,1.1-2.7,2.4-3.7,3.8s-1.7,3-2.1,4.8c-.5,2.5-.4,4.7.5,6.6s2.3,3.3,4.4,4.3,4.7,1.5,7.7,1.5,4.9-.3,7.1-1.1c2.2-.7,4.2-1.7,6.1-3.1l2.4,2.9c.2,0,.4.3.6.4s.5.2.9.2h7c.4,0,.7,0,.9-.3.3-.2.4-.5.5-.8,0-.3,0-.6-.2-.9l-5.3-6.7c.9-.9,1.9-1.9,2.8-3.1.9-1.1,1.8-2.2,2.6-3.4s1.5-2.2,2.1-3.3c.6-1,.9-1.9,1.1-2.7,0-.4,0-.7-.1-.9h0ZM124.7,91.9c-1.3.4-2.6.7-3.9.7s-2.1-.2-3-.7c-.9-.4-1.6-1.1-2-1.9-.4-.9-.6-1.9-.3-3.1.3-1.3,1-2.5,2.1-3.5s2.4-1.8,3.8-2.5l7.2,8.9c-1.2,1-2.5,1.7-3.8,2.1h0ZM125.4,72c-1-1.3-1.6-2.4-1.9-3.3s-.4-1.7-.2-2.5c.2-1.3.9-2.3,1.9-3,1.1-.7,2.2-1.1,3.4-1.1s2.3.4,3,1.1c.7.7.9,1.7.6,3-.2.9-.6,1.6-1.3,2.3-.6.7-1.4,1.3-2.4,1.8-.9.6-2,1.1-3.1,1.7h0Z"/>
            <path class="cls-1" d="M186.4,63.3c-.6-1.3-1.5-2.6-2.8-3.8s-3-2.1-5-2.9c-2-.7-4.3-1.1-6.9-1.1-5,0-9.1,1.1-12.2,3.2-3.1,2.1-5.1,5-5.9,8.7-.5,2.4-.4,4.6.3,6.3.7,1.8,2,3.2,3.9,4.4s4.3,2.1,7.2,2.7c2.4.6,4.3,1.2,5.7,1.7s2.5,1.1,3,1.8c.6.7.7,1.5.5,2.6-.3,1.5-1.3,2.6-2.8,3.5-1.6.8-3.7,1.3-6.4,1.3s-2.8-.2-3.7-.6-1.7-1-2.2-1.6c-.5-.7-.8-1.3-.9-2-.2-.3-.4-.6-.7-.8-.2-.2-.6-.3-1.2-.3h-6.7c-.4,0-.7,0-.9.4s-.4.6-.5.9c-.3,2.1,0,4.1,1.1,5.9s2.9,3.3,5.4,4.5c2.5,1.1,5.7,1.7,9.6,1.7,5.6,0,10.1-1.1,13.5-3.2s5.5-5.2,6.4-9.3c.5-2.4.4-4.5-.3-6.2s-2.1-3.1-4.1-4.3-4.7-2.1-8.1-2.8c-2.2-.6-4-1.2-5.3-1.7s-2.2-1.1-2.6-1.8-.6-1.5-.4-2.5c.4-1.5,1.2-2.6,2.6-3.4,1.4-.7,3.1-1.1,5.1-1.1s3.1.4,4.2,1.2c1,.8,1.6,1.7,1.6,2.8.2.4.4.7.7.9.3.2.6.2,1,.2h7c.4,0,.7,0,.9-.4.3-.3.4-.6.5-.9.2-1.3,0-2.6-.6-3.9h0Z"/>
            <path class="cls-1" d="M53.3,95.2H11.4c-4.3,0-7.7-3.4-7.7-7.7v-45c0-2,.8-4,2.3-5.4L37.2,6c1.4-1.4,3.3-2.2,5.3-2.2h56.8c2,0,4,.8,5.4,2.3l31.1,31.1c1.5,1.5,2.3,3.4,2.3,5.4v5.9h3.7v-5.9c0-3.1-1.1-6-3.3-8.1L107.4,3.4C105.2,1.2,102.3,0,99.3,0h-56.8C39.5,0,36.6,1.2,34.5,3.3L3.4,34.4c-2.2,2.2-3.4,5.1-3.4,8.1v45c0,6.3,5.2,11.4,11.4,11.4h41.1l.8-3.8h0Z"/>
            <circle class="cls-1" cx="37.1" cy="33.1" r="11.3"/>
            <circle class="cls-1" cx="104.7" cy="33.1" r="11.3"/>
            <path class="cls-1" d="M75.1,21.8c-6.2,0-11.3,5.1-11.3,11.3s5.1,11.3,11.3,11.3,11.3-5.1,11.3-11.3-5.1-11.3-11.3-11.3ZM75.1,40.6c-4.2,0-7.6-3.4-7.6-7.6s3.4-7.6,7.6-7.6,7.6,3.4,7.6,7.6-3.4,7.6-7.6,7.6Z"/>
            <path class="cls-1" d="M37.1,60.1c-6.2,0-11.3,5.1-11.3,11.3s5.1,11.3,11.3,11.3,11.3-5.1,11.3-11.3-5.1-11.3-11.3-11.3ZM37.1,78.9c-4.2,0-7.6-3.4-7.6-7.6s3.4-7.6,7.6-7.6,7.6,3.4,7.6,7.6-3.4,7.6-7.6,7.6Z"/>
          </g>
        </g>
      </g>
    </g>
  </g>
</svg>