<?xml version="1.0" encoding="UTF-8" standalone="no"?>
<!DOCTYPE svg PUBLIC "-//W3C//DTD SVG 1.1//EN" "http://www.w3.org/Graphics/SVG/1.1/DTD/svg11.dtd">
<svg width="100%" height="100%" viewBox="0 0 1200 1200" version="1.1" xmlns="http://www.w3.org/2000/svg" xmlns:xlink="http://www.w3.org/1999/xlink" xml:space="preserve" xmlns:serif="http://www.serif.com/" style="fill-rule:evenodd;clip-rule:evenodd;stroke-linejoin:round;stroke-miterlimit:2;">
    <g transform="matrix(0.715454,0,0,0.715454,170.729,170.726)">
        <path d="M902.918,966.614C904.602,967.122 904.396,967.472 903.823,965.818L902.362,965.247L902.918,966.614Z" style="fill:rgb(216,215,0);"/>
        <path d="M900.485,969.252C902.202,969.76 901.901,970.014 901.328,968.329L899.85,967.789L900.485,969.252Z" style="fill:rgb(216,215,0);"/>
        <path d="M846.946,1035.57C848.9,1035.72 848.837,1036.35 848.202,1034.69C846.58,1034.25 846.93,1033.9 846.946,1035.57Z" style="fill:rgb(216,215,0);"/>
        <path d="M903.505,964.087L903.822,965.818L905.125,964.594C907.859,961.782 907.476,961.876 907.589,959.494L903.282,964.166L903.505,964.087Z" style="fill:rgb(216,215,0);"/>
        <path d="M901.964,967.328C903.505,967.758 903.282,968.122 902.918,966.614L901.392,966.01L901.964,967.328Z" style="fill:rgb(216,215,0);"/>
        <path d="M805.406,1047.03C803.896,1046.66 804.293,1046.45 804.739,1048.01C806.153,1048.3 805.787,1048.5 805.406,1047.03Z" style="fill:rgb(216,215,0);"/>
        <path d="M807.631,1045.18C805.613,1045.23 805.74,1044.58 806.297,1046.26C808.139,1046.79 807.662,1047.09 807.631,1045.18Z" style="fill:rgb(216,215,0);"/>
        <path d="M806.297,1046.26C804.754,1045.75 804.977,1045.43 805.407,1047.03C806.978,1047.34 806.804,1047.72 806.297,1046.26Z" style="fill:rgb(216,215,0);"/>
        <path d="M901.328,968.329C902.932,968.759 902.505,968.933 901.964,967.328L900.644,966.82L901.328,968.329Z" style="fill:rgb(216,215,0);"/>
        <path d="M316.96,558.849C319.44,555.751 320.758,554.146 322.594,550.252C324.223,546.757 324.501,540.971 324.311,536.41C324.215,534.488 323.914,531.294 323.564,529.37C323.453,528.893 322.968,527.049 322.729,526.638C321.736,524.745 322.268,525.525 320.783,524.381C322.484,537.904 327.307,544.786 314.45,559.755C311.28,563.41 310.717,562.902 308.507,564.793C306.886,566.207 307.658,565.444 306.925,566.588L309.802,566.747C311.637,564.014 314.449,562.044 316.96,558.849Z" style="fill:rgb(216,215,0);"/>
        <path d="M321.053,494.568C323.326,494.823 323.341,495.585 322.531,493.647C320.609,493.01 321.014,492.629 321.053,494.568Z" style="fill:rgb(216,215,0);"/>
        <path d="M322.53,493.646C324.222,494.266 323.977,494.6 323.445,492.883C321.64,492.28 321.808,491.883 322.53,493.646Z" style="fill:rgb(216,215,0);"/>
        <path d="M899.5,969.919C901.153,970.459 901.01,970.889 900.484,969.252L898.959,968.616L899.5,969.919Z" style="fill:rgb(216,215,0);"/>
        <path d="M799.128,705.196C799.319,706.245 799.128,705.116 799.128,705.196Z" style="fill:rgb(216,215,0);"/>
        <path d="M965.482,560.01C965.466,560.01 965.449,560.043 965.386,560.043C965.37,560.09 965.275,560.137 965.243,560.17L965.482,560.01Z" style="fill:rgb(216,215,0);"/>
        <path d="M898.436,970.602C900.104,971.03 900.024,971.523 899.5,969.919C897.8,969.379 897.959,968.933 898.436,970.602Z" style="fill:rgb(216,215,0);"/>
        <path d="M897.163,971.556C899.103,971.603 899.007,972.239 898.436,970.602C896.703,970.078 897.163,969.743 897.163,971.556Z" style="fill:rgb(216,215,0);"/>
        <path d="M870.45,981.137C870.689,981.043 870.879,980.994 871.213,980.883C872.643,980.422 872.897,980.073 873.088,979.866L869.195,979.485L869.703,980.772C870.386,980.853 870.546,980.994 870.45,981.137Z" style="fill:rgb(216,215,0);"/>
        <path d="M864.84,981.821C862.965,981.344 862.869,980.646 863.537,982.314C865.286,982.838 865.127,983.427 864.84,981.821Z" style="fill:rgb(216,215,0);"/>
        <path d="M863.537,982.314C860.152,981.964 862.25,982.06 861.773,983.141C864.967,983.427 863.14,983.394 863.537,982.314Z" style="fill:rgb(216,215,0);"/>
        <path d="M848.203,1034.69C849.871,1035.15 849.521,1035.41 848.997,1033.8C847.391,1033.29 847.71,1033.1 848.203,1034.69Z" style="fill:rgb(216,215,0);"/>
        <path d="M355.165,464.788C355.801,463.611 355.586,464.135 355.936,462.785L355.562,454.935C355.403,454.315 355.126,453.601 354.862,452.997L354.291,451.804C353.775,454.888 354.124,462.277 353.839,466.472C354.894,465.423 354.346,466.329 355.165,464.788Z" style="fill:rgb(216,215,0);"/>
        <path d="M870.45,981.137C868.512,981.821 870.228,981.487 870.45,981.137Z" style="fill:rgb(216,215,0);"/>
        <path d="M1005.27,932.001C1000.03,927.773 992.1,922.974 986.364,920.782L942.106,910.802C941.883,910.769 941.644,910.706 941.437,910.659L938.721,910.039C930.839,908.641 924.275,908.132 916.837,905.938C914.946,905.414 913.119,904.54 910.783,903.746L903.504,900.918C903.328,900.822 903.091,900.726 902.931,900.663C887.818,893.83 876.917,884.916 867.27,871.455C860.676,862.238 859.023,857.406 854.971,850.923C854.844,850.716 854.445,850.176 854.271,849.969L852.157,846.107C851.093,844.374 851.87,845.71 851.14,844.629C846.755,837.954 843.513,830.135 839.921,823.048L831.879,806.648C831.768,806.489 831.672,806.266 831.562,806.108L819.595,778.393C818.578,775.706 818.674,777.407 818.467,773.435L819.087,773.816C815.559,771.305 815.273,766.124 813.875,762.056L808.677,746.229C805.896,738.299 801.209,720.469 800.112,712.379L799.73,709.471C799.587,708.517 799.476,707.404 799.317,706.5C799.159,705.514 799.127,705.244 799.127,705.197C799.127,705.134 799.127,705.101 799.096,705.023C795.996,687.367 793.947,665.564 801.161,648.338C806.723,635.084 813.255,628.537 824.013,621.418C841.685,609.721 864.395,601.711 884.466,593.258L930.154,575.11C933.698,573.6 935.08,572.949 939.132,571.455C945.648,569.102 959.156,560.902 965.385,560.044C968.452,556.659 975.651,554.689 981.594,551.304L990.478,545.742C997.073,540.911 995.739,542.961 1001.65,537.542C1012.62,527.562 1009.85,532.727 1020.23,518.249L1025.64,509.541C1025.98,508.984 1026.92,507.316 1027.2,506.775C1038.52,485.799 1039.41,465.808 1037.38,441.938C1036.15,427.54 1024.18,399.762 1014.33,388.224C1006.15,378.61 995.611,367.167 984.693,360.7C978.464,357.045 963.924,350.752 957.392,349.242C930.154,342.996 909.097,345.825 883.273,353.198C880.604,353.961 879.174,354.82 876.297,355.645C870.641,357.202 866.38,358.332 860.677,360.079L857.116,361.399C845.515,365.721 784.888,385.839 772.192,386.539C758.365,387.286 754.996,377.862 761.782,373.333C763.229,368.978 768.885,359.618 771.619,355.216C773.606,351.895 780.613,339.911 781.217,337.544C781.376,335.479 781.409,335.289 782.25,333.539L784.73,330.568C784.061,326.85 788.194,319.634 789.465,315.598C793.644,302.376 795.408,299.325 797.696,284.673C799.317,273.995 798.84,284.736 799.937,267.78C800.764,255.512 800.97,242.497 799.73,230.038C794.837,182.109 767.931,127.601 729.855,96.962C717.54,87.045 706.43,79.036 692.017,71.9L685.438,68.452C685.422,68.419 684.691,67.562 684.675,67.531C684.595,67.261 684.421,67.197 684.31,67.022C681.052,67.261 663.713,59.872 657.944,58.441C595.784,42.676 578.375,54.373 562.77,51.592C561.944,52.513 563.128,51.799 561.323,52.752C561.077,52.863 559.694,53.356 559.409,53.434C556.97,53.927 557.056,53.737 554.737,53.673L550.303,54.086L538.901,58.568C535.905,59.458 531.106,60.793 528.135,62.096C524.996,63.399 520.911,64.828 517.733,66.068C514.102,67.531 511.242,69.692 507.777,69.406C506.046,72.234 498.521,75.128 496.248,74.825C495.74,77.639 496.297,77.447 492.8,77.289C492.149,78.353 492.513,78.147 491.361,79.354C490.368,80.42 490.988,79.831 489.979,80.514C489.048,81.167 487.777,81.707 486.713,82.278L454.834,106.784C454.66,106.942 454.167,107.467 453.999,107.642L452.307,109.39C450.314,111.393 449.454,112.251 447.5,114.666C442.621,120.484 441.279,120.96 435.438,128.714L433.594,131.067C433.483,131.209 433.348,131.415 433.221,131.558L414.953,161.863C413.396,163.643 414.652,162.26 413.475,162.976C413.88,166.981 412.354,167.521 410.336,171.653C401.485,189.674 399.633,205.089 395.868,222.443C395.438,224.381 395.342,225.494 395.121,227.545C394.986,228.37 394.986,228.736 394.794,229.626C394.755,229.849 394.667,230.15 394.636,230.326L394.182,231.628C394.906,233.758 394.929,234.552 394.81,237.096C394.81,237.827 394.581,239.67 394.358,240.417C393.953,242.085 393.635,242.308 393.468,242.594C394.667,246.059 394.81,260.774 393.801,264.317L395.764,278.048C396.202,281.877 398.164,287.218 397.329,290.427C397.456,290.65 397.615,290.936 397.679,291.094L399.467,297.673C400.142,299.899 400.603,301.71 401.174,304.475C402.191,309.45 405.076,313.438 404.933,318.54C405.846,319.064 406.363,316.33 406.124,320.621C407.141,321.194 407.069,318.3 407.047,322.846L430.837,369.408C440.531,386.19 439.45,393.214 416.557,388.669C410.082,387.367 404.17,386.127 397.695,384.633L319.754,361.494C319.556,361.431 319.349,361.367 319.134,361.271C318.896,361.224 318.69,361.177 318.436,361.113L289.799,354.692C248.449,348.272 213.853,362.908 189.03,389.925L173.074,412.538C172.947,412.681 172.812,412.857 172.718,413.015L171.089,414.906C170.985,415.049 170.764,415.305 170.651,415.399C170.54,415.542 170.262,416.099 170.143,415.972C170.08,415.782 169.832,416.322 169.682,416.512C169.658,420.198 167.003,424.362 165.606,427.794C165.017,429.304 162.205,438.601 162.205,439.301C162.117,444.194 161.037,447.501 160.282,451.473C157.112,468.27 160.108,486.689 164.891,502.787L170.263,514.928C184.469,542.898 204.279,555.197 230.603,567.164L237.683,570.009C240.082,571.01 242.975,572.377 245.811,573.553L310.457,598.423C340.199,610.024 381.302,620.305 398.227,645.701C404.233,654.726 406.722,669.157 406.959,682.187C407.245,697.015 404.782,709.68 403.05,723.442C401.421,736.568 397.48,746.834 394.468,759.246C393.649,762.727 392.808,763.965 391.808,767.272C389.289,775.742 390.662,772.738 386.913,780.842L385.863,784.656C383.201,795.256 372.244,818.505 367.699,826.992L364.091,835.016C362.335,839.577 355.177,850.925 355.121,854.483L344.378,875.08C335.065,888.779 325.801,901.237 307.319,909.12C287.072,917.748 260.049,921.992 236.514,927.108C232.605,927.967 230.706,929.062 226.399,930.636C217.722,933.751 209.252,938.789 202.315,944.637C201.226,945.558 202.284,944.621 201.044,945.908L195.934,950.93C194.702,952.248 194.242,952.741 193.194,954.028L185.201,965.375C179.846,973.194 175.411,983.412 173.727,992.709C173.004,996.602 171.859,998.144 171.605,1002.64C170.827,1016.61 170.406,1034.95 175.61,1048.96C177.763,1054.77 182.228,1063.82 183.302,1068.1C184.303,1072.55 198.12,1090.76 201.243,1094.19C212.868,1107.14 222.896,1116.65 237.468,1125.93C276.553,1150.89 318.919,1155.57 364.538,1143.98C400.938,1134.71 429.542,1112.06 458.902,1091.27C461.286,1089.58 462.772,1088.09 465.592,1086.21C470.638,1082.88 474.246,1080.06 478.838,1076.62C498.75,1061.62 542.461,1028.78 566.543,1017.53C568.982,1016.39 572.694,1015.12 575.181,1014.12C602.347,1002.86 623.317,1006.82 648.283,1018.01C652.415,1019.88 659.884,1022.46 662.522,1026.4C662.792,1026.4 663.095,1026.3 663.269,1026.62L666.368,1027.61C672.724,1030.53 678.652,1034.88 684.595,1038.78C691.35,1043.21 697.626,1047.88 704.396,1052.49C729.886,1070.04 771.109,1101.5 794.9,1114.71L816.766,1126.23C817.736,1126.71 818.673,1127.11 819.627,1127.53C819.801,1127.63 820.024,1127.73 820.214,1127.79C820.421,1127.87 820.611,1128 820.787,1128.07L824.839,1129.82C837.14,1133.89 849.869,1138.28 863.138,1140.74L869.193,1141.33C874.278,1141.74 879.046,1142.79 884.353,1142.88C897.448,1143.11 907.332,1142.17 919.347,1140.21C927.5,1138.85 935.732,1136.1 943.296,1133.07C991.972,1113.69 1033.46,1072.71 1040.76,1018.61L1041.01,1010.7C1041.4,979.183 1029.33,951.595 1005.27,932.001ZM813.844,390.446C817.548,378.877 839.033,374.809 857.213,387.554C878.936,402.81 868.051,424.852 866.096,438.868L867.51,437.041C869.305,434.291 869.432,430.525 870.338,426.807C871.912,420.037 873.405,407.37 870.1,401.348C867.827,397.185 865.682,394.245 865.189,390.733C869.417,391.877 866.253,390.08 869.304,392.99L874.676,402.954C875.773,407.387 875.582,425.71 873.293,431.51L870.164,446.878C870.655,448.689 872.388,449.563 873.77,452.774C867.78,452.297 868.844,450.073 866.413,449.516L866.62,439.505C865.3,441.22 866,439.425 865.253,442.507C862.679,452.868 871.435,452.948 874.057,456.873C880.542,456.492 895.528,466.902 899.056,470.414C902.171,473.496 904.966,478.025 905.746,483.253C906.747,489.722 904.315,494.887 903.679,500.846C905.03,499.653 904.108,500.973 905.506,498.669C905.84,498.129 906.302,496.889 906.46,496.269C908.987,487.259 907.939,478.805 902.201,471.446C899.929,468.538 897.672,467.49 896.068,464.598C900.867,464.756 898.309,464.248 900.707,466.186C900.834,466.249 901.01,466.472 901.137,466.567L903.742,468.984C905.412,470.541 907.239,472.925 908.606,475.117C911.577,479.711 911.195,489.611 910.433,494.982C909.574,501.418 908.78,499.433 907.476,503.978L902.106,521.013C902.248,524.59 902.248,522.38 903.87,524.923C905.061,526.814 905.029,527.004 905.808,528.928C902.169,528.801 900.373,528.038 899.055,524.78C897.815,521.745 898.562,518.661 898.705,515.61C898.419,515.8 897.322,516.5 897.148,516.293C896.989,516.086 896.686,516.373 896.465,516.436L896.465,524.079C897.926,525.016 896.322,523.729 897.672,525.35C907.366,536.666 911.1,527.719 921.398,532.406C928.073,535.506 930.965,542.116 930.185,549.219C929.82,552.62 929.264,553.574 927.389,554.194C927.07,557.722 923.415,560.265 919.284,561.313L919.443,560.773C915.057,565.222 906.761,564.587 901.23,563.03C889.105,559.645 883.353,556.291 875.2,547.408L871.068,541.639C869.701,539.398 869.193,536.681 868.843,533.852C867.159,520.98 873.341,510.969 875.661,499.622C878.235,486.844 872.911,484.589 864.727,480.775C855.684,476.627 859.529,479.091 858.735,476.834C849.264,477.47 832.197,462.532 837.964,440.664C841.001,429.191 851.918,409.47 831.561,409.2L825.935,408.325C825.824,408.024 825.489,408.104 825.268,407.977C820.42,409.295 823.441,407.834 822.884,407.102C821.136,407.865 821.294,408.311 821.787,406.484C818.466,407.325 820.706,406.722 820.103,405.705C816.813,405.228 814.238,402.527 814.572,398.808L813.27,394.486C813.256,393.72 813.606,391.177 813.844,390.446ZM362.165,419.751C345.829,420.052 348.784,423.056 348.147,434.213C349.268,434.864 349.022,432.13 349.149,436.628L350.277,442.444C353.623,446.402 352.407,449.612 354.29,451.804C355.148,442.444 340.949,421.435 356.292,421.022C355.076,425.281 352.749,425.473 353.321,430.018C353.624,432.527 355.689,435.611 356.706,439.106C363.349,462.101 362.141,474.482 341.959,486.687C339.765,488.038 341.634,487.768 337.398,487.958L337.208,486.368C334.085,486.957 332.679,488.038 329.301,489.356C328.341,489.753 326.528,490.469 325.758,490.946L323.843,492.44C323.763,492.297 323.557,492.726 323.446,492.884C326.712,492.614 325.933,491.66 328.404,492.694C326.384,495.586 322.881,495.968 321.905,500.671C320.632,506.902 325.345,518.454 326.553,524.413C328.254,532.645 331.114,539.526 327.284,548.139C324.217,554.988 322.659,558.485 315.112,564.555C308.429,569.88 308.159,569.546 306.927,566.589L298.537,571.453C293.587,573.931 286.658,575.202 279.554,574.948C269.78,574.567 262.487,567.542 260.627,559.596C258.912,552.286 264.339,546.39 269.758,542.895C278.156,537.54 285.268,543.736 291.569,538.334C295.836,534.726 294.278,530.23 293.587,524.255C291.418,515.069 285.729,509.11 285.299,497.492C284.816,485.891 292.332,480.298 297.903,475.229C297.903,473.465 297.545,473.942 299.397,474.513C299.825,473.942 299.643,473.973 300.635,473.115C302.988,471.017 309.289,467.712 312.451,468.204L314.723,465.996C315.535,465.503 316.082,465.409 317.115,464.963C319.157,464.122 320.35,463.326 321.811,462.182C324.934,459.783 326.778,458.67 325.72,452.822C323.059,438.186 313.642,418.608 325.855,403.86C331.505,397.06 333.23,393.532 341.477,390.638C364.845,382.375 380.412,394.086 378.298,407.007C377.397,412.377 368.966,419.624 362.165,419.751ZM457.499,1057.02L453.375,1066.9C449.663,1072.72 442.703,1078.9 435.154,1077.76C421.312,1075.72 421.099,1055.1 428.409,1050.3C428.624,1043.65 427.439,1039.43 421.091,1037.86C418.936,1035.69 416.569,1035.64 413.343,1035.23C409.87,1034.82 408.71,1034.66 405.675,1033.93C401.948,1033.01 395.179,1032.34 393.057,1029.43L390.928,1029.74C390.308,1028.88 391.031,1029.16 389.227,1028.05C388.431,1027.56 388.417,1027.67 387.336,1027.48C387.954,1025.92 387.954,1026.46 386.262,1026.87C386.653,1025.16 387.177,1025.19 385.572,1025.9C386.239,1024.08 386.524,1024.35 384.69,1025.06C385.333,1023.39 385.46,1023.85 383.679,1024.43C384.125,1022.79 384.602,1022.9 382.996,1023.43C382.425,1020.52 383.315,1022.87 381.837,1020.39C381.526,1019.85 381.09,1019.4 380.716,1018.96L379.875,1018.04C380.184,1013.76 377.522,1008.15 377.585,1002.5C377.634,997.125 377.634,990.147 377.943,985.015L376.553,980.756C374.654,980.279 375.424,981.55 375.074,978.849C373.478,979.358 373.842,979.565 374.249,977.991C372.127,977.387 373.994,978.308 372.413,977.324C371.132,976.481 371.887,976.831 371.316,975.894C367.612,974.75 366.294,973.001 362.584,973.891C362.377,973.733 362.075,973.605 361.932,973.51L351.483,970.966C348.233,970.489 343.872,969.108 340.614,969.949C340.129,968.647 342.456,967.724 338.881,969.124C338.302,968.584 341.957,966.406 335.615,968.297C335.067,967.057 337.442,966.151 333.884,967.438C333.36,965.15 333.987,966.755 332.628,965.183C332.073,964.579 328.6,962.226 325.406,958.381C325.191,958.143 324.619,957.3 323.761,956.584C322.156,955.233 324.285,956.346 322.069,955.616C323.403,949.068 319.264,952.692 318.652,938.58C317.97,923.864 318.502,916.777 328.688,907.432C330.055,906.161 330.055,906.145 332.105,905.271C335.8,903.714 340.178,902.475 343.031,905.24L346.32,905.414C348.125,908.355 349.404,906.288 350.826,911.119C350.922,911.215 352.105,911.929 352.304,912.04L352.455,915.41C354.608,916.617 352.614,923.944 352.693,925.644C351.684,926.485 351.113,923.991 351.891,927.424C350.389,927.138 350.636,926.884 351.113,928.329C349.285,927.932 349.865,927.742 350.278,929.743C349.754,932.286 348.49,933.367 348.172,936.529C347.656,942.488 349.889,940.36 349.864,945.159L353.869,946.97C354.465,947.256 355.324,947.51 355.76,947.717L358.089,949.307C366.868,947.416 377.722,951.165 383.405,950.817C386.591,951.261 384.962,951.024 387.297,951.801C387.52,951.864 387.694,951.944 387.917,952.055C412.144,960.955 399.621,997.935 405.477,1005.45C409.625,1010.76 433.112,1011.67 442.155,1017.26C446.477,1019.91 449.514,1022.36 452.524,1026.27C452.628,1026.41 452.827,1026.59 452.882,1026.76C453.033,1026.87 453.16,1027.08 453.271,1027.22C453.375,1027.38 453.517,1027.57 453.621,1027.73C454.654,1029.41 454.702,1029.19 455.186,1031.93L454.654,1031.7C456.418,1032.98 456.831,1033.28 457.625,1036.63C459.095,1042.73 458.952,1051.32 457.499,1057.02ZM647.316,172.635C663.065,166.978 680.165,174.448 685.488,189.29C690.813,204.133 682.326,220.739 666.546,226.381C650.781,232.037 633.697,224.601 628.374,209.758C623.049,194.9 631.519,178.293 647.316,172.635ZM520.017,172.874C535.797,167.216 552.88,174.669 558.22,189.528C563.544,204.387 555.074,220.994 539.278,226.635C523.521,232.293 506.421,224.855 501.09,209.996C495.773,195.139 504.243,178.516 520.017,172.874ZM647.745,816.056C645.521,821.237 641.674,825.559 637.128,829.008C627.833,837.288 615.516,842.373 601.993,842.563C572.609,842.945 548.502,819.95 548.183,791.217C547.858,762.469 571.426,738.87 600.825,738.473C630.216,738.076 654.292,761.071 654.625,789.819C654.738,799.322 652.211,808.316 647.745,816.056ZM606.205,672.936C576.821,673.333 552.737,650.354 552.395,621.606C552.102,592.842 575.652,569.243 605.053,568.846C634.427,568.449 658.503,591.444 658.837,620.209C659.156,648.94 635.588,672.539 606.205,672.936ZM688.587,504.977C688.268,527.86 686.203,535.743 677.876,536.459C658.503,537.793 634.412,528.29 617.233,519.867C613.625,518.119 610.257,515.258 606.944,514.575C598.609,512.907 607.579,518.596 597.598,521.52C583.662,522.41 585.426,518.802 581.93,514.48C580.356,517.881 582.143,516.561 579.395,518.659C564.409,526.638 545.038,535.155 528.089,537.633C517.949,539.127 515.137,535.631 509.655,531.213L508.757,530.37C495.543,512.715 495.552,464.817 506.445,451.088C509.56,447.178 512.977,445.303 519.841,444.826C534.763,443.872 559.484,456.204 572.378,463.26C575.478,464.786 575.986,465.421 577.655,467.965C579.64,467.965 581.238,461.386 590.621,461.417C603.272,461.21 603.708,467.918 605.472,467.789C609.446,467.519 610.494,464.881 618.217,460.399C628.643,454.376 650.415,445.732 660.919,445.683C672.361,445.652 678.94,447.003 682.229,456.95C683.326,460.255 684.312,460.955 685.677,463.99C688.682,470.651 689.858,495.951 688.587,504.977ZM674.363,333.937L665.131,344.742C662.207,346.983 662.221,346.919 659.933,349.827C656.517,354.118 647.251,358.901 642.563,361.905C584.171,399.6 542.24,366.894 506.023,325.641C478.65,291.761 504.926,277.776 520.19,287.152L530.719,301.565C531.974,304.6 534.016,306.38 536.034,309.431C547.731,324.274 558.855,337.749 578.425,342.454C595.525,346.586 611.274,341.071 622.016,333.681C647.332,316.36 650.637,295.129 658.886,287.278C666.339,280.189 670.041,282.271 679.862,283.844L679.989,282.477C685.44,282.526 690.129,287.976 690.239,291.219C691.002,312.498 685.123,318.441 674.363,333.937ZM904.602,970.745C896.592,980.963 878.809,981.82 870.403,984.984C865.651,986.732 865.207,985.874 862.506,987.908C858.849,990.72 863.316,989.402 858.215,990.386L858.882,985.221C857.785,985.921 858.516,985.078 857.531,986.35C855.878,988.511 856.037,991.339 856.053,994.104C856.084,1004.31 857.244,1005.8 855.783,1017.62C855.243,1021.98 853.446,1024.68 853.415,1027.13C857.213,1026.27 855.036,1027.19 855.973,1027.76C855.496,1037.61 841.638,1046.26 832.231,1046.66C828.02,1046.82 826.701,1047.02 823.331,1047.8C817.038,1049.18 810.046,1046.32 806.915,1052.74C804.246,1058.24 808.345,1057.4 806.375,1061.1L804.134,1056.6C801.545,1052.44 803.373,1052.44 804.74,1048.01L801.783,1050.11C803.324,1064.47 807.679,1062.91 808.172,1070.38C808.506,1075.31 807.505,1077.22 805.487,1080.46C804.263,1082.43 804.184,1082.81 802.547,1084.07L798.622,1087.42C801.863,1086.37 799.813,1086.97 801.196,1086.1L805.121,1083.22C806.789,1082.08 805.487,1082.37 808.14,1081.3C807.569,1084.94 807.727,1084.86 805.852,1087.39C805.217,1088.21 803.532,1090.41 802.912,1091.11C800.163,1094.25 797.033,1094.22 791.423,1094.03C784.954,1093.84 785.034,1093.24 781.236,1090.18C779.392,1088.69 775.881,1086.21 775.5,1084.15C774.8,1080.2 775.197,1083.54 775.707,1082.02C777.089,1081.92 778.646,1082.88 780.426,1084.07C780.219,1083.73 780.109,1083.22 779.839,1082.21C778.376,1082.62 778.615,1082.94 778.917,1081.44C776.836,1080.63 777.742,1081.51 775.994,1079.35C775.341,1078.57 774.388,1076.85 773.753,1075.58C769.699,1067.35 767.984,1054.3 770.319,1045.23C771.496,1040.46 775.421,1032.53 777.408,1029.83C789.31,1013.76 820.061,1021.13 826.751,1010.38C832.313,1001.41 824.05,977.545 832.473,971.252C831.98,968.09 831.964,969.791 833.361,969.631C832.743,967.836 832.25,967.978 834.044,968.55C834.474,965.658 836.221,963.958 838.955,963.321C842.037,955.964 869.307,952.023 874.695,952.309C875.362,951.577 874.758,952.276 875.982,951.196C877.253,950.132 876.459,950.926 877.793,949.606C879.049,948.335 879.541,947.508 880.48,946.587C879.557,937.243 876.649,935.78 875.33,928.884C874.202,923.035 878.461,915.566 882.785,914.518C885.073,910.45 893.273,910.417 895.148,914.105C901.473,914.328 907.512,924.149 909.864,930.951C911.278,935.019 911.151,941.533 910.611,946.349C910.087,951.324 907.862,956.822 907.592,959.493C907.799,959.43 908.036,959.031 908.083,959.174L909.1,958.443C909.228,958.363 909.433,958.173 909.546,958.062L911.373,956.155C911.625,962.069 907.526,967.011 904.602,970.745Z" style="fill:rgb(216,215,0);"/>
        <path d="M786.019,1087.13C785.176,1086.72 784.89,1086.45 784.462,1086.1L783.126,1084.66C781.998,1084.62 781.425,1084.59 781.045,1084.5C785.431,1087.53 791.089,1091.81 798.319,1087.09C794.839,1087.79 789.483,1088.74 786.019,1087.13Z" style="fill:rgb(216,215,0);"/>
        <path d="M859.596,984.285C857.991,983.841 858.357,983.649 858.881,985.222C860.185,985.492 859.818,985.652 859.596,984.285Z" style="fill:rgb(216,215,0);"/>
        <path d="M874.376,979.009C874.804,978.722 873.707,978.849 874.376,979.009Z" style="fill:rgb(216,215,0);"/>
        <path d="M849.807,1032.88C851.444,1033.41 850.951,1033.52 850.411,1031.83C848.917,1031.5 849.347,1031.32 849.807,1032.88Z" style="fill:rgb(216,215,0);"/>
        <path d="M851.682,1028.91C850.268,1030.97 851.015,1029.16 850.411,1031.83C850.951,1031.48 850.951,1032.2 852.302,1030.4C853.843,1028.3 853.176,1030.01 853.415,1027.13C852.668,1027.8 853.256,1026.62 851.682,1028.91Z" style="fill:rgb(216,215,0);"/>
        <path d="M875.854,979.136C875.044,979.103 874.614,979.056 874.376,979.009C874.296,979.072 874.169,979.136 873.946,979.216C873.834,979.296 873.516,979.454 873.406,979.502C873.31,979.549 873.2,979.772 873.087,979.867C877.698,980.916 875.328,979.613 875.854,979.136Z" style="fill:rgb(216,215,0);"/>
        <path d="M859.596,984.285L861.773,983.141C858.278,983.331 860.105,983.458 859.596,984.285Z" style="fill:rgb(216,215,0);"/>
        <path d="M848.997,1033.8C850.602,1034.26 850.268,1034.5 849.807,1032.88C848.187,1032.44 848.457,1032.21 848.997,1033.8Z" style="fill:rgb(216,215,0);"/>
        <path d="M878.682,979.072L880.876,978.149C881.097,978.022 881.384,977.864 881.607,977.688L875.488,978.022L875.854,979.135C877.855,979.502 875.934,979.836 878.682,979.072Z" style="fill:rgb(216,215,0);"/>
        <path d="M864.84,981.821L869.702,980.773C867.367,980.566 866.334,980.153 864.84,981.821Z" style="fill:rgb(216,215,0);"/>
        <path d="M662.874,1026.94C662.778,1026.75 662.62,1026.57 662.524,1026.4C662.461,1026.41 662.413,1026.41 662.35,1026.41L662.874,1026.94Z" style="fill:rgb(216,215,0);"/>
    </g>
</svg>
