<?xml version="1.0" encoding="UTF-8" standalone="no"?>
<!DOCTYPE svg PUBLIC "-//W3C//DTD SVG 1.1//EN" "http://www.w3.org/Graphics/SVG/1.1/DTD/svg11.dtd">
<svg width="100%" height="100%" viewBox="0 0 448 512" version="1.1" xmlns="http://www.w3.org/2000/svg" xmlns:xlink="http://www.w3.org/1999/xlink" xml:space="preserve" xmlns:serif="http://www.serif.com/" style="fill-rule:evenodd;clip-rule:evenodd;stroke-linejoin:round;stroke-miterlimit:2;">
    <g transform="matrix(0.676129,0,0,0.646553,72.547,90.45)">
        <path d="M224,0C237.3,0 248,10.7 248,24L248,70.1L271,47.1C280.4,37.7 295.6,37.7 304.9,47.1C314.2,56.5 314.3,71.7 304.9,81L247.9,138L247.9,214.5L314.1,176.3L335,98.5C338.4,85.7 351.6,78.1 364.4,81.5C377.2,84.9 384.8,98.1 381.4,110.9L373,142.2L410.1,120.8C421.6,114.2 436.3,118.1 442.9,129.6C449.5,141.1 445.6,155.8 434.1,162.4L397,183.8L428.5,192.2C441.3,195.6 448.9,208.8 445.5,221.6C442.1,234.4 428.9,242 416.1,238.6L338.3,217.7L272,256L338.2,294.2L416,273.3C428.8,269.9 442,277.5 445.4,290.3C448.8,303.1 441.2,316.3 428.4,319.7L397,328.2L434.1,349.6C445.6,356.2 449.5,370.9 442.9,382.4C436.3,393.9 421.6,397.8 410.1,391.2L373,369.8L381.4,401.3C384.8,414.1 377.2,427.3 364.4,430.7C351.6,434.1 338.4,426.5 335,413.7L314.1,335.9L248,297.6L248,374.1L305,431.1C314.4,440.5 314.4,455.7 305,465C295.6,474.3 280.4,474.4 271.1,465L248.1,442L248.1,488.1C248.1,501.4 237.4,512.1 224.1,512.1C210.8,512.1 200.1,501.4 200.1,488.1L200.1,442L177.1,465C167.7,474.4 152.5,474.4 143.2,465C133.9,455.6 133.8,440.4 143.2,431.1L200.2,374.1L200.2,297.6L134,335.8L113.1,413.6C109.7,426.4 96.5,434 83.7,430.6C70.9,427.2 63.3,414 66.7,401.2L75,369.8L37.9,391.2C26.4,397.8 11.7,393.9 5.1,382.4C-1.5,370.9 2.4,356.2 13.9,349.6L51,328.2L19.5,319.8C6.7,316.4 -0.9,303.2 2.5,290.4C5.9,277.6 19.1,270 31.9,273.4L109.7,294.3L176,256L109.8,217.8L31.9,238.6C19.1,242 5.9,234.4 2.5,221.6C-0.9,208.8 6.7,195.6 19.5,192.2L51,183.8L13.9,162.4C2.4,155.8 -1.5,141.1 5.1,129.6C11.7,118.1 26.4,114.2 37.9,120.8L75,142.2L66.6,110.7C63.2,97.9 70.8,84.7 83.6,81.3C96.4,77.9 109.6,85.5 113,98.3L133.9,176.1L200,214.4L200,137.9L143,81C133.6,71.6 133.6,56.4 143,47.1C152.4,37.8 167.6,37.7 176.9,47.1L199.9,70.1L200,24C200,10.7 210.7,0 224,0Z" style="fill:rgb(63,118,0);fill-rule:nonzero;"/>
    </g>
</svg>
