<?xml version="1.0" encoding="UTF-8"?>
<svg id="b" data-name="Ebene 2" xmlns="http://www.w3.org/2000/svg" viewBox="0 0 444.62 512.1">
  <g id="c" data-name="Gestaltungsebene">
    <path d="M222.31,0c13.3,0,24,10.7,24,24v46.1l23-23c9.4-9.4,24.6-9.4,33.9,0s9.4,24.6,0,33.9l-57,57v76.5l66.2-38.2,20.9-77.8c3.4-12.8,16.6-20.4,29.4-17s20.4,16.6,17,29.4l-8.4,31.3,37.1-21.4c11.5-6.6,26.2-2.7,32.8,8.8,6.6,11.5,2.7,26.2-8.8,32.8l-37.1,21.4,31.5,8.4c12.8,3.4,20.4,16.6,17,29.4s-16.6,20.4-29.4,17l-77.8-20.9-66.3,38.3,66.2,38.2,77.8-20.9c12.8-3.4,26,4.2,29.4,17s-4.2,26-17,29.4l-31.4,8.5,37.1,21.4c11.5,6.6,15.4,21.3,8.8,32.8s-21.3,15.4-32.8,8.8l-37.1-21.4,8.4,31.5c3.4,12.8-4.2,26-17,29.4s-26-4.2-29.4-17l-20.9-77.8-66.1-38.3v76.5l57,57c9.4,9.4,9.4,24.6,0,33.9s-24.6,9.4-33.9,0l-23-23v46.1c0,13.3-10.7,24-24,24s-24-10.7-24-24v-46.1l-23,23c-9.4,9.4-24.6,9.4-33.9,0s-9.4-24.6,0-33.9l57-57v-76.5l-66.2,38.2-20.9,77.8c-3.4,12.8-16.6,20.4-29.4,17s-20.4-16.6-17-29.4l8.3-31.4-37.1,21.4c-11.5,6.6-26.2,2.7-32.8-8.8s-2.7-26.2,8.8-32.8l37.1-21.4-31.5-8.4c-12.8-3.4-20.4-16.6-17-29.4s16.6-20.4,29.4-17l77.8,20.9,66.3-38.3-66.2-38.2-77.9,20.8c-12.8,3.4-26-4.2-29.4-17s4.2-26,17-29.4l31.5-8.4-37.1-21.4c-11.5-6.6-15.4-21.3-8.8-32.8s21.3-15.4,32.8-8.8l37.1,21.4-8.4-31.5c-3.4-12.8,4.2-26,17-29.4s26,4.2,29.4,17l20.9,77.8,66.1,38.3v-76.5l-57-56.9c-9.4-9.4-9.4-24.6,0-33.9s24.6-9.4,33.9,0l23,23,.1-46.1c0-13.3,10.7-24,24-24Z" fill="#974d57"/>
  </g>
</svg>