<?xml version="1.0" encoding="UTF-8"?>
<svg id="b" data-name="Ebene 2" xmlns="http://www.w3.org/2000/svg" viewBox="0 0 267.21 169.93">
  <g id="c" data-name="Ebene 1">
    <path d="M208.52,56.11l-13.61,50.8c-1,3.73-4.38,6.32-8.24,6.32h-90.63l-3.12,14.18h93.75c10.26,0,19.28-6.92,21.93-16.83l14.6-54.47h-14.68Z" fill="#e73331" stroke-width="0"/>
    <path d="M230.53,56.11l-15.08,56.3c-3.49,13.02-15.3,22.08-28.78,22.08h-51.26l-3.12,14.18h54.38c19.86,0,37.33-13.41,42.47-32.59l16.07-59.97h-14.68Z" fill="#62b55a" stroke-width="0"/>
    <path d="M252.54,56.11l-16.56,61.8c-5.98,22.32-26.2,37.84-49.31,37.84h-78.86l-3.12,14.18h81.98c29.47,0,55.38-19.88,63-48.35l17.54-65.47h-14.67Z" fill="#646363" stroke-width="0"/>
    <path d="M3.17,127.38c-.14,0-.24-.05-.32-.14-.08-.09-.11-.21-.08-.36l2.32-10.81H1.41c-.14,0-.24-.05-.32-.14-.08-.09-.11-.21-.08-.34l.38-1.82c.03-.15.1-.27.21-.36.11-.09.25-.14.39-.14h10.57c.15,0,.26.05.33.14.07.09.1.22.07.36l-.4,1.82c-.03.13-.09.25-.2.34-.11.09-.24.14-.38.14h-3.65l-2.32,10.81c-.03.15-.1.27-.21.36-.11.09-.25.14-.39.14h-2.24Z" fill="#e73331" stroke-width="0"/>
    <path d="M12.26,127.38c-.13,0-.24-.05-.32-.14-.08-.09-.11-.21-.08-.36l2.78-13.11c.03-.15.1-.27.22-.36.12-.09.25-.14.38-.14h9.14c.15,0,.26.05.33.14.07.09.1.22.07.36l-.34,1.61c-.03.13-.1.25-.21.34-.11.09-.25.14-.39.14h-6.53l-.69,3.17h6.09c.15,0,.26.05.33.14.07.09.1.21.07.36l-.32,1.49c-.03.14-.1.25-.21.34-.11.09-.25.14-.39.14h-6.07l-.71,3.27h6.69c.15,0,.26.05.33.14.07.09.1.21.07.36l-.34,1.59c-.03.15-.1.27-.21.36-.11.09-.25.14-.39.14h-9.3Z" fill="#e73331" stroke-width="0"/>
    <path d="M29.97,127.58c-.91,0-1.73-.12-2.44-.35-.71-.24-1.3-.59-1.75-1.06-.46-.47-.77-1.05-.95-1.72s-.19-1.46-.04-2.33c.09-.55.21-1.14.35-1.77.14-.63.28-1.24.41-1.82.3-1.16.74-2.14,1.34-2.95s1.37-1.43,2.3-1.87c.93-.43,2.04-.64,3.32-.64.87,0,1.67.11,2.39.33.72.22,1.32.54,1.82.97.49.42.84.93,1.05,1.51.21.58.25,1.24.11,1.97-.01.12-.06.22-.15.3-.09.08-.19.12-.31.12h-2.34c-.16,0-.29-.04-.37-.12-.09-.08-.14-.21-.15-.4.04-.77-.15-1.3-.58-1.61s-.98-.46-1.68-.46c-.83,0-1.55.23-2.16.69-.6.46-1.04,1.22-1.29,2.28-.28,1.1-.52,2.23-.73,3.39-.19,1.06-.09,1.82.28,2.28.38.46.97.69,1.79.69.7,0,1.33-.15,1.89-.45.56-.3,1.01-.84,1.36-1.62.11-.2.21-.34.31-.41.1-.07.23-.11.39-.11h2.32c.12,0,.22.04.29.12.07.08.1.18.07.3-.19.7-.47,1.34-.85,1.93-.38.58-.85,1.09-1.42,1.52-.57.43-1.24.76-2,.99-.76.23-1.62.34-2.59.34Z" fill="#e73331" stroke-width="0"/>
    <path d="M38.36,127.38c-.13,0-.24-.05-.32-.14-.08-.09-.11-.21-.08-.36l2.78-13.11c.03-.15.1-.27.22-.36.12-.09.25-.14.38-.14h2.2c.15,0,.26.05.33.14.07.09.1.22.07.36l-1.07,5.04h5.47l1.09-5.04c.03-.15.1-.27.21-.36.11-.09.24-.14.37-.14h2.2c.15,0,.26.05.33.14.07.09.1.22.07.36l-2.78,13.11c-.03.15-.1.27-.21.36-.11.09-.25.14-.39.14h-2.2c-.14,0-.24-.05-.32-.14-.08-.09-.11-.21-.08-.36l1.11-5.2h-5.46l-1.11,5.2c-.03.15-.1.27-.21.36-.11.09-.25.14-.39.14h-2.2Z" fill="#e73331" stroke-width="0"/>
    <path d="M53,127.38c-.13,0-.24-.05-.32-.14-.08-.09-.11-.21-.08-.36l2.78-13.11c.03-.15.1-.27.21-.36.11-.09.25-.14.39-.14h1.82c.2,0,.34.04.42.13.08.09.13.17.14.23l3.61,8.47,1.77-8.33c.03-.15.1-.27.21-.36.11-.09.24-.14.39-.14h2.04c.15,0,.26.05.33.14.07.09.1.22.07.36l-2.78,13.11c-.03.14-.1.25-.21.35-.11.1-.24.15-.37.15h-1.84c-.2,0-.34-.05-.41-.14-.07-.09-.12-.17-.15-.22l-3.65-8.23-1.71,8.09c-.03.15-.1.27-.21.36-.11.09-.25.14-.39.14h-2.06Z" fill="#e73331" stroke-width="0"/>
    <path d="M67.17,127.38c-.15,0-.26-.05-.33-.14-.07-.09-.1-.21-.07-.36l2.8-13.11c.03-.15.1-.27.21-.36.11-.09.24-.14.37-.14h2.3c.13,0,.24.05.32.14.08.09.11.22.08.36l-2.8,13.11c-.03.15-.1.27-.21.36-.11.09-.24.14-.37.14h-2.3Z" fill="#e73331" stroke-width="0"/>
    <path d="M73.22,127.38c-.13,0-.24-.05-.32-.14-.08-.09-.11-.21-.08-.36l2.78-13.11c.03-.15.1-.27.21-.36.11-.09.24-.14.37-.14h2.18c.15,0,.26.05.33.14.07.09.1.22.07.36l-.97,4.5,4.88-4.62c.07-.08.17-.16.3-.25.14-.09.32-.13.54-.13h2.5c.2,0,.33.08.37.25.05.17.01.31-.11.41l-6.45,6.31,4.15,6.47c.11.17.1.33-.01.46-.11.13-.25.2-.39.2h-2.38c-.21,0-.38-.04-.48-.12-.11-.08-.18-.17-.22-.26l-3.43-5.24-1.11,5.12c-.03.15-.09.27-.19.36-.1.09-.23.14-.37.14h-2.18Z" fill="#e73331" stroke-width="0"/>
    <path d="M6.28,148.67c-.91,0-1.73-.12-2.44-.35-.71-.24-1.3-.59-1.75-1.06-.46-.47-.77-1.05-.95-1.72s-.19-1.46-.04-2.33c.09-.55.21-1.14.35-1.77.14-.63.28-1.24.41-1.82.3-1.16.74-2.14,1.34-2.95s1.37-1.43,2.3-1.87c.93-.43,2.04-.64,3.32-.64.87,0,1.67.11,2.39.33.72.22,1.32.54,1.82.97.49.42.84.93,1.05,1.51.21.58.25,1.24.11,1.97-.01.12-.06.22-.15.3-.09.08-.19.12-.31.12h-2.34c-.16,0-.29-.04-.37-.12-.09-.08-.14-.21-.15-.4.04-.77-.15-1.3-.58-1.61s-.98-.46-1.68-.46c-.83,0-1.55.23-2.16.69-.6.46-1.04,1.22-1.29,2.28-.28,1.1-.52,2.23-.73,3.39-.19,1.06-.09,1.82.28,2.28.38.46.97.69,1.79.69.7,0,1.33-.15,1.89-.45.56-.3,1.01-.84,1.36-1.62.11-.2.21-.34.31-.41.1-.07.23-.11.39-.11h2.32c.12,0,.22.04.29.12.07.08.1.18.07.3-.19.7-.47,1.34-.85,1.93-.38.58-.85,1.09-1.42,1.52-.57.43-1.24.76-2,.99-.76.23-1.62.34-2.59.34Z" fill="#62b55a" stroke-width="0"/>
    <path d="M20,148.67c-.83,0-1.6-.11-2.31-.34s-1.3-.57-1.77-1.03-.81-1.03-1.01-1.72c-.19-.69-.21-1.49-.05-2.42.09-.58.2-1.15.33-1.72.13-.57.26-1.15.39-1.74.44-1.82,1.24-3.19,2.39-4.13,1.15-.94,2.67-1.41,4.57-1.41.83,0,1.6.12,2.3.35.7.24,1.29.59,1.77,1.06.48.47.82,1.05,1.02,1.73.19.69.21,1.49.05,2.4-.11.59-.22,1.17-.34,1.74-.12.57-.26,1.15-.4,1.72-.46,1.86-1.26,3.24-2.4,4.14-1.14.91-2.66,1.36-4.54,1.36ZM20.22,146.07c.81,0,1.52-.24,2.14-.72.62-.48,1.05-1.24,1.29-2.29.15-.59.28-1.15.39-1.66.11-.52.22-1.07.31-1.64.2-1.05.12-1.81-.25-2.29-.37-.48-.97-.72-1.78-.72s-1.53.24-2.14.72c-.6.48-1.04,1.24-1.29,2.29-.15.58-.28,1.13-.38,1.64-.11.52-.21,1.07-.32,1.66-.19,1.05-.1,1.81.25,2.29.36.48.95.72,1.78.72Z" fill="#62b55a" stroke-width="0"/>
    <path d="M28.63,148.47c-.13,0-.24-.05-.32-.14-.08-.09-.11-.21-.08-.36l2.78-13.11c.03-.15.1-.27.21-.36.11-.09.25-.14.39-.14h1.82c.2,0,.34.04.42.13.08.09.13.17.14.23l3.61,8.47,1.77-8.33c.03-.15.1-.27.21-.36.11-.09.24-.14.39-.14h2.04c.15,0,.26.05.33.14.07.09.1.22.07.36l-2.78,13.11c-.03.14-.1.25-.21.35-.11.1-.24.15-.37.15h-1.84c-.2,0-.34-.05-.41-.14-.07-.09-.12-.17-.15-.22l-3.65-8.23-1.71,8.09c-.03.15-.1.27-.21.36-.11.09-.25.14-.39.14h-2.06Z" fill="#62b55a" stroke-width="0"/>
    <path d="M47.58,148.67c-1.29,0-2.35-.18-3.18-.55-.83-.37-1.42-.86-1.77-1.47-.36-.61-.48-1.26-.37-1.95.01-.11.06-.2.15-.29s.19-.13.31-.13h2.2c.17,0,.3.04.38.11.08.07.15.17.22.27.04.23.15.45.31.67.17.22.41.39.74.53.32.14.73.21,1.23.21.89,0,1.59-.14,2.1-.42s.82-.67.93-1.15c.08-.35.03-.63-.16-.85-.19-.21-.52-.41-1-.59-.48-.17-1.11-.36-1.89-.56-.97-.21-1.76-.51-2.38-.9-.62-.38-1.05-.86-1.28-1.44s-.27-1.27-.09-2.08c.26-1.21.9-2.17,1.94-2.87,1.03-.71,2.38-1.06,4.03-1.06.86,0,1.62.12,2.27.36.65.24,1.2.56,1.63.95.44.39.75.81.94,1.25.19.44.25.87.18,1.29-.01.11-.06.2-.15.29-.09.09-.19.13-.31.13h-2.3c-.14,0-.25-.03-.34-.08-.09-.05-.17-.15-.22-.28,0-.35-.17-.65-.51-.92s-.8-.39-1.38-.39c-.66,0-1.22.12-1.67.36s-.75.61-.87,1.11c-.07.32-.02.59.13.82.15.22.44.42.87.59.42.17,1,.35,1.75.55,1.13.24,2.02.55,2.68.93.66.38,1.11.85,1.34,1.41.23.56.26,1.25.09,2.06-.28,1.34-.98,2.36-2.1,3.06-1.12.69-2.6,1.04-4.44,1.04Z" fill="#62b55a" stroke-width="0"/>
    <path d="M61.18,148.67c-.86,0-1.64-.11-2.34-.33-.7-.22-1.28-.56-1.74-1.02-.46-.46-.78-1.04-.94-1.74-.16-.7-.14-1.53.06-2.5l1.75-8.23c.03-.15.1-.27.21-.36.11-.09.25-.14.39-.14h2.2c.15,0,.26.05.33.14.07.09.1.22.07.36l-1.75,8.21c-.21,1-.17,1.74.14,2.22s.92.73,1.84.73,1.64-.24,2.21-.73c.57-.48.96-1.22,1.16-2.22l1.75-8.21c.03-.15.1-.27.22-.36.12-.09.25-.14.38-.14h2.22c.13,0,.24.05.31.14.07.09.1.22.07.36l-1.74,8.23c-.42,1.92-1.17,3.33-2.27,4.24-1.09.9-2.61,1.35-4.55,1.35Z" fill="#62b55a" stroke-width="0"/>
    <path d="M69.99,148.47c-.13,0-.24-.05-.32-.14-.08-.09-.11-.21-.08-.36l2.8-13.11c.03-.15.1-.27.21-.36.11-.09.24-.14.37-.14h2.26c.14,0,.24.05.32.14.08.09.11.22.08.36l-2.34,10.91h6.25c.15,0,.26.05.33.14.07.09.1.21.07.36l-.36,1.69c-.03.15-.09.27-.2.36-.11.09-.24.14-.38.14h-9.01Z" fill="#62b55a" stroke-width="0"/>
    <path d="M82.37,148.47c-.14,0-.24-.05-.32-.14-.08-.09-.11-.21-.08-.36l2.32-10.81h-3.67c-.14,0-.24-.05-.32-.14-.08-.09-.11-.21-.08-.34l.38-1.82c.03-.15.1-.27.21-.36.11-.09.25-.14.39-.14h10.57c.15,0,.26.05.33.14.07.09.1.22.07.36l-.4,1.82c-.03.13-.09.25-.2.34-.11.09-.24.14-.38.14h-3.65l-2.32,10.81c-.03.15-.1.27-.21.36-.11.09-.25.14-.39.14h-2.24Z" fill="#62b55a" stroke-width="0"/>
    <path d="M91.46,148.47c-.15,0-.26-.05-.33-.14-.07-.09-.1-.21-.07-.36l2.8-13.11c.03-.15.1-.27.21-.36.11-.09.24-.14.37-.14h2.3c.13,0,.24.05.32.14.08.09.11.22.08.36l-2.8,13.11c-.03.15-.1.27-.21.36-.11.09-.24.14-.37.14h-2.3Z" fill="#62b55a" stroke-width="0"/>
    <path d="M97.51,148.47c-.13,0-.24-.05-.32-.14-.08-.09-.11-.21-.08-.36l2.78-13.11c.03-.15.1-.27.21-.36.11-.09.25-.14.39-.14h1.82c.2,0,.34.04.42.13.08.09.13.17.14.23l3.61,8.47,1.77-8.33c.03-.15.1-.27.21-.36.11-.09.24-.14.39-.14h2.04c.15,0,.26.05.33.14.07.09.1.22.07.36l-2.78,13.11c-.03.14-.1.25-.21.35-.11.1-.24.15-.37.15h-1.84c-.2,0-.34-.05-.41-.14-.07-.09-.12-.17-.15-.22l-3.65-8.23-1.71,8.09c-.03.15-.1.27-.21.36-.11.09-.25.14-.39.14h-2.06Z" fill="#62b55a" stroke-width="0"/>
    <path d="M116.69,148.67c-1.26,0-2.3-.21-3.11-.63-.81-.42-1.37-1.04-1.68-1.86-.32-.81-.37-1.8-.17-2.95.11-.58.23-1.2.37-1.86.14-.66.29-1.28.43-1.87.27-1.13.74-2.09,1.4-2.88.67-.79,1.49-1.4,2.49-1.83.99-.42,2.11-.63,3.35-.63.99,0,1.84.13,2.54.38s1.26.59,1.68,1c.42.41.72.86.88,1.34.16.48.2.95.12,1.39-.01.12-.07.23-.17.31-.1.09-.22.13-.35.13h-2.5c-.14,0-.23-.03-.29-.08s-.11-.13-.15-.24c-.03-.24-.12-.49-.27-.74-.16-.25-.39-.46-.72-.64-.32-.17-.77-.26-1.33-.26-.83,0-1.55.22-2.14.67s-1.01,1.17-1.25,2.18c-.15.58-.29,1.16-.41,1.75-.13.59-.25,1.18-.35,1.77-.17,1.05-.06,1.8.35,2.26.41.46,1.03.69,1.86.69.56,0,1.09-.1,1.56-.29s.89-.5,1.23-.92c.34-.42.58-.95.72-1.59l.1-.5h-2.2c-.14,0-.24-.05-.31-.15-.07-.1-.1-.22-.07-.35l.28-1.29c.03-.15.1-.27.21-.36.11-.09.25-.14.39-.14h4.94c.15,0,.26.05.33.14.07.09.1.21.07.36l-.49,2.2c-.23,1.16-.69,2.14-1.37,2.96-.69.82-1.54,1.45-2.57,1.89s-2.17.65-3.42.65Z" fill="#62b55a" stroke-width="0"/>
    <path d="M5.36,169.93c-1.29,0-2.35-.18-3.18-.55-.83-.37-1.42-.86-1.77-1.47-.36-.61-.48-1.26-.37-1.95.01-.11.06-.2.15-.29s.19-.13.31-.13h2.2c.17,0,.3.04.38.11.08.07.15.17.22.27.04.23.15.45.31.67.17.22.41.39.74.53.32.14.73.21,1.23.21.89,0,1.59-.14,2.1-.42s.82-.67.93-1.15c.08-.35.03-.63-.16-.85-.19-.21-.52-.41-1-.59-.48-.17-1.11-.36-1.89-.56-.97-.21-1.76-.51-2.38-.9-.62-.38-1.05-.86-1.28-1.44s-.27-1.27-.09-2.08c.26-1.21.9-2.17,1.94-2.87,1.03-.71,2.38-1.06,4.03-1.06.86,0,1.62.12,2.27.36.65.24,1.2.56,1.63.95.44.39.75.81.94,1.25.19.44.25.87.18,1.29-.01.11-.06.2-.15.29-.09.09-.19.13-.31.13h-2.3c-.14,0-.25-.03-.34-.08-.09-.05-.17-.15-.22-.28,0-.35-.17-.65-.51-.92s-.8-.39-1.38-.39c-.66,0-1.22.12-1.67.36s-.75.61-.87,1.11c-.07.32-.02.59.13.82.15.22.44.42.87.59.42.17,1,.35,1.75.55,1.13.24,2.02.55,2.68.93.66.38,1.11.85,1.34,1.41.23.56.26,1.25.09,2.06-.28,1.34-.98,2.36-2.1,3.06-1.12.69-2.6,1.04-4.44,1.04Z" fill="#646363" stroke-width="0"/>
    <path d="M13.49,169.73c-.13,0-.24-.05-.32-.14-.08-.09-.11-.21-.08-.36l2.78-13.11c.03-.15.1-.27.22-.36.12-.09.25-.14.38-.14h9.14c.15,0,.26.05.33.14.07.09.1.22.07.36l-.34,1.61c-.03.13-.1.25-.21.34-.11.09-.25.14-.39.14h-6.53l-.69,3.17h6.09c.15,0,.26.05.33.14.07.09.1.21.07.36l-.32,1.49c-.03.14-.1.25-.21.34-.11.09-.25.14-.39.14h-6.07l-.71,3.27h6.69c.15,0,.26.05.33.14.07.09.1.21.07.36l-.34,1.59c-.03.15-.1.27-.21.36-.11.09-.25.14-.39.14h-9.3Z" fill="#646363" stroke-width="0"/>
    <path d="M26.23,169.73c-.15,0-.26-.05-.32-.14-.07-.09-.09-.21-.06-.36l2.76-13.11c.03-.15.1-.27.22-.36.12-.09.25-.14.4-.14h5.34c1.68,0,2.92.39,3.72,1.16.8.77,1.05,1.89.74,3.34-.2.98-.61,1.8-1.22,2.46-.61.66-1.35,1.15-2.21,1.47l1.77,5.04s.02.07.03.1c0,.03,0,.07-.01.12-.03.11-.09.2-.19.29-.1.09-.21.13-.33.13h-2.24c-.24,0-.41-.06-.49-.19-.09-.13-.15-.25-.19-.35l-1.47-4.62h-2.44l-1.01,4.66c-.03.15-.1.27-.21.36-.11.09-.25.14-.39.14h-2.2ZM30.57,162.01h2.6c.73,0,1.3-.17,1.74-.5.43-.34.71-.81.85-1.41.12-.6.04-1.08-.23-1.43s-.78-.52-1.52-.52h-2.6l-.83,3.87Z" fill="#646363" stroke-width="0"/>
    <path d="M42.51,169.73c-.21,0-.38-.06-.48-.17-.11-.11-.17-.25-.18-.41l-1.49-12.99c-.01-.17.03-.31.12-.4.09-.09.21-.14.36-.14h2.06c.2,0,.35.05.43.16.09.11.14.22.15.32l1.05,9.86,5.22-9.86c.04-.11.12-.21.25-.32.13-.11.29-.16.49-.16h2.32c.16,0,.27.06.31.19.05.13.03.27-.05.41l-6.96,12.93c-.08.16-.2.3-.34.41-.15.11-.34.17-.56.17h-2.7Z" fill="#646363" stroke-width="0"/>
    <path d="M52.53,169.73c-.15,0-.26-.05-.33-.14-.07-.09-.1-.21-.07-.36l2.8-13.11c.03-.15.1-.27.21-.36.11-.09.24-.14.37-.14h2.3c.13,0,.24.05.32.14.08.09.11.22.08.36l-2.8,13.11c-.03.15-.1.27-.21.36-.11.09-.24.14-.37.14h-2.3Z" fill="#646363" stroke-width="0"/>
    <path d="M63.92,169.93c-.91,0-1.73-.12-2.44-.35-.71-.24-1.3-.59-1.75-1.06-.46-.47-.77-1.05-.95-1.72s-.19-1.46-.04-2.33c.09-.55.21-1.14.35-1.77.14-.63.28-1.24.41-1.82.3-1.16.74-2.14,1.34-2.95s1.37-1.43,2.3-1.87c.93-.43,2.04-.64,3.32-.64.87,0,1.67.11,2.39.33.72.22,1.32.54,1.82.97.49.42.84.93,1.05,1.51.21.58.25,1.24.11,1.97-.01.12-.06.22-.15.3-.09.08-.19.12-.31.12h-2.34c-.16,0-.29-.04-.37-.12-.09-.08-.14-.21-.15-.4.04-.77-.15-1.3-.58-1.61s-.98-.46-1.68-.46c-.83,0-1.55.23-2.16.69-.6.46-1.04,1.22-1.29,2.28-.28,1.1-.52,2.23-.73,3.39-.19,1.06-.09,1.82.28,2.28.38.46.97.69,1.79.69.7,0,1.33-.15,1.89-.45.56-.3,1.01-.84,1.36-1.62.11-.2.21-.34.31-.41.1-.07.23-.11.39-.11h2.32c.12,0,.22.04.29.12.07.08.1.18.07.3-.19.7-.47,1.34-.85,1.93-.38.58-.85,1.09-1.42,1.52-.57.43-1.24.76-2,.99-.76.23-1.62.34-2.59.34Z" fill="#646363" stroke-width="0"/>
    <path d="M72.31,169.73c-.13,0-.24-.05-.32-.14-.08-.09-.11-.21-.08-.36l2.78-13.11c.03-.15.1-.27.22-.36.12-.09.25-.14.38-.14h9.14c.15,0,.26.05.33.14.07.09.1.22.07.36l-.34,1.61c-.03.13-.1.25-.21.34-.11.09-.25.14-.39.14h-6.53l-.69,3.17h6.09c.15,0,.26.05.33.14.07.09.1.21.07.36l-.32,1.49c-.03.14-.1.25-.21.34-.11.09-.25.14-.39.14h-6.07l-.71,3.27h6.69c.15,0,.26.05.33.14.07.09.1.21.07.36l-.34,1.59c-.03.15-.1.27-.21.36-.11.09-.25.14-.39.14h-9.3Z" fill="#646363" stroke-width="0"/>
    <path d="M89.55,169.93c-1.29,0-2.35-.18-3.18-.55-.83-.37-1.42-.86-1.77-1.47-.36-.61-.48-1.26-.37-1.95.01-.11.06-.2.15-.29s.19-.13.31-.13h2.2c.17,0,.3.04.38.11.08.07.15.17.22.27.04.23.15.45.31.67.17.22.41.39.74.53.32.14.73.21,1.23.21.89,0,1.59-.14,2.1-.42s.82-.67.93-1.15c.08-.35.03-.63-.16-.85-.19-.21-.52-.41-1-.59-.48-.17-1.11-.36-1.89-.56-.97-.21-1.76-.51-2.38-.9-.62-.38-1.05-.86-1.28-1.44s-.27-1.27-.09-2.08c.26-1.21.9-2.17,1.94-2.87,1.03-.71,2.38-1.06,4.03-1.06.86,0,1.62.12,2.27.36.65.24,1.2.56,1.63.95.44.39.75.81.94,1.25.19.44.25.87.18,1.29-.01.11-.06.2-.15.29-.09.09-.19.13-.31.13h-2.3c-.14,0-.25-.03-.34-.08-.09-.05-.17-.15-.22-.28,0-.35-.17-.65-.51-.92s-.8-.39-1.38-.39c-.66,0-1.22.12-1.67.36s-.75.61-.87,1.11c-.07.32-.02.59.13.82.15.22.44.42.87.59.42.17,1,.35,1.75.55,1.13.24,2.02.55,2.68.93.66.38,1.11.85,1.34,1.41.23.56.26,1.25.09,2.06-.28,1.34-.98,2.36-2.1,3.06-1.12.69-2.6,1.04-4.44,1.04Z" fill="#646363" stroke-width="0"/>
    <path d="M111.59,56.59c-.15-.32-.46-.48-.95-.48h-6.67c-1.06,0-1.76.42-2.08,1.28l-10.04,25.82-1.71-16.03c-.04-.33-.16-.67-.37-1.04-.2-.37-.63-.55-1.28-.55h-3.85c-.62,0-1.1.18-1.47.55-.37.37-.66.71-.86,1.04l-8.26,15.72.8-25.32c.04-.49-.07-.86-.31-1.11-.24-.24-.65-.36-1.22-.36h-6.24c-.41,0-.76.14-1.04.42-.29.29-.43.62-.43.98l-1.04,39.53c-.04.53.09.97.4,1.34.3.37.78.55,1.43.55h5.08c.65,0,1.18-.17,1.59-.52.41-.34.72-.7.92-1.07l9.97-18.9,2.94,18.9c.08.37.25.73.52,1.07.27.35.74.52,1.44.52h5.08c.65,0,1.21-.18,1.68-.55s.8-.81,1.01-1.34l14.93-39.4c.16-.37.17-.72.03-1.05Z" fill="#1d1d1b" stroke-width="0"/>
    <path d="M148.57,76.88c-.17-.23-.43-.34-.8-.34h-5.32c-.73,0-1.23.33-1.47.98-.9,1.92-1.78,3.49-2.66,4.71-.88,1.22-1.58,2.18-2.11,2.88l-6.36-8.02c1.87-.98,3.59-2,5.14-3.06,1.54-1.06,2.83-2.25,3.85-3.58,1.02-1.32,1.71-2.82,2.08-4.49.41-1.88.28-3.61-.37-5.2-.65-1.59-1.79-2.87-3.42-3.83-1.64-.96-3.76-1.44-6.37-1.44-2.77,0-5.22.5-7.34,1.5-2.12,1-3.83,2.3-5.14,3.89-1.3,1.59-2.16,3.32-2.57,5.2-.32,1.55-.29,3.06.1,4.52.38,1.47,1.23,3.11,2.53,4.9-1.87.94-3.56,1.97-5.04,3.09-1.49,1.12-2.73,2.38-3.74,3.76-.99,1.39-1.7,2.98-2.11,4.77-.53,2.53-.36,4.74.49,6.61.86,1.88,2.33,3.31,4.41,4.32,2.08.99,4.65,1.49,7.71,1.49,2.57,0,4.94-.35,7.12-1.07,2.19-.71,4.24-1.74,6.15-3.09l2.39,2.94c.16.12.36.26.58.4s.54.21.95.21h7.03c.37,0,.69-.1.95-.3.27-.21.42-.47.46-.8.08-.32,0-.63-.24-.92l-5.26-6.73c.93-.93,1.86-1.95,2.78-3.06.92-1.1,1.77-2.22,2.57-3.36.8-1.14,1.48-2.23,2.05-3.27.57-1.04.94-1.95,1.1-2.73.08-.36.04-.66-.12-.88ZM125.5,91.86c-1.3.44-2.61.65-3.91.65-1.1,0-2.11-.22-3-.68-.9-.44-1.57-1.1-2.02-1.95-.45-.86-.55-1.88-.31-3.06.29-1.35.99-2.5,2.11-3.46,1.13-.96,2.38-1.78,3.77-2.48l7.16,8.88c-1.23.97-2.49,1.68-3.8,2.1ZM126.18,72.01c-.98-1.3-1.63-2.39-1.93-3.27-.31-.88-.38-1.72-.21-2.54.24-1.26.89-2.26,1.95-3,1.06-.73,2.18-1.1,3.37-1.1,1.3,0,2.29.37,2.97,1.1.67.74.88,1.74.64,3-.21.86-.64,1.62-1.29,2.29-.65.68-1.45,1.29-2.38,1.84-.94.55-1.98,1.11-3.12,1.68Z" fill="#1d1d1b" stroke-width="0"/>
    <path d="M187.23,63.26c-.57-1.34-1.52-2.61-2.84-3.79-1.33-1.18-2.98-2.14-4.96-2.88-1.98-.73-4.27-1.1-6.88-1.1-5.02,0-9.09,1.07-12.24,3.22-3.14,2.14-5.09,5.04-5.87,8.71-.53,2.45-.44,4.55.27,6.31.72,1.75,2.01,3.21,3.89,4.37,1.88,1.16,4.28,2.07,7.22,2.72,2.36.61,4.27,1.19,5.72,1.72,1.45.53,2.46,1.12,3.03,1.77.57.65.73,1.51.49,2.57-.33,1.47-1.27,2.63-2.82,3.49-1.55.85-3.67,1.28-6.36,1.28-1.51,0-2.75-.21-3.73-.64s-1.72-.97-2.23-1.62c-.52-.65-.83-1.33-.95-2.02-.21-.33-.43-.6-.68-.83-.24-.22-.63-.33-1.16-.33h-6.67c-.36,0-.68.13-.94.39s-.42.56-.46.89c-.33,2.08.05,4.05,1.13,5.91,1.08,1.85,2.87,3.34,5.38,4.46,2.51,1.12,5.72,1.68,9.64,1.68,5.59,0,10.07-1.05,13.46-3.15,3.38-2.1,5.5-5.19,6.36-9.27.53-2.44.44-4.52-.28-6.24-.71-1.71-2.06-3.14-4.06-4.28s-4.71-2.08-8.14-2.81c-2.24-.61-4.01-1.18-5.29-1.69-1.29-.5-2.16-1.1-2.63-1.77-.47-.67-.6-1.5-.4-2.48.37-1.51,1.24-2.63,2.63-3.36,1.39-.74,3.08-1.1,5.08-1.1,1.75,0,3.15.39,4.19,1.19,1.04.79,1.56,1.72,1.56,2.78.16.41.39.7.67.86.29.16.63.24,1.04.24h6.98c.36,0,.68-.13.94-.39.27-.27.42-.56.46-.89.21-1.27.02-2.57-.55-3.92Z" fill="#1d1d1b" stroke-width="0"/>
    <path d="M54.14,95.23H12.24c-4.26,0-7.66-3.45-7.66-7.66v-45.04c0-2.03.8-3.97,2.27-5.44L37.98,5.96c1.42-1.42,3.31-2.22,5.35-2.22h56.77c2.03,0,3.97.8,5.44,2.27l31.08,31.08c1.47,1.47,2.27,3.36,2.27,5.44l-.04,5.91h3.78l.04-5.91c0-3.08-1.18-5.96-3.36-8.09L108.23,3.36c-2.18-2.18-5.06-3.36-8.09-3.36h-56.77c-3.03,0-5.87,1.18-8.04,3.31L4.15,34.44c-2.18,2.18-3.36,5.06-3.36,8.09v45.04c0,6.34,5.16,11.45,11.45,11.45h41.08l.83-3.78Z" fill="#1d1d1b" stroke-width="0"/>
    <circle cx="37.93" cy="33.07" r="11.31" fill="#1d1d1b" stroke-width="0"/>
    <circle cx="105.49" cy="33.07" r="11.31" fill="#1d1d1b" stroke-width="0"/>
    <path d="M75.87,21.76c-6.24,0-11.3,5.06-11.3,11.31s5.06,11.3,11.3,11.3,11.31-5.06,11.31-11.3-5.06-11.31-11.31-11.31ZM75.87,43.38c-5.69,0-10.31-4.62-10.31-10.31s4.62-10.32,10.31-10.32,10.32,4.62,10.32,10.32-4.62,10.31-10.32,10.31Z" fill="#1d1d1b" stroke-width="0"/>
    <path d="M37.93,60.08c-6.24,0-11.3,5.06-11.3,11.31s5.06,11.3,11.3,11.3,11.31-5.06,11.31-11.3-5.06-11.31-11.31-11.31ZM37.93,81.7c-5.69,0-10.31-4.62-10.31-10.31s4.62-10.32,10.31-10.32,10.32,4.62,10.32,10.32-4.62,10.31-10.32,10.31Z" fill="#1d1d1b" stroke-width="0"/>
  </g>
</svg>