<?xml version="1.0" encoding="utf-8"?>
<!DOCTYPE svg PUBLIC "-//W3C//DTD SVG 1.1//EN" "http://www.w3.org/Graphics/SVG/1.1/DTD/svg11.dtd" [
	<!ENTITY ns_svg "http://www.w3.org/2000/svg">
	<!ENTITY ns_xlink "http://www.w3.org/1999/xlink">
]>
<svg  version="1.1" xmlns="&ns_svg;" xmlns:xlink="&ns_xlink;" width="100" height="300" viewBox="0 0 100 300"
	 overflow="visible" enable-background="new 0 0 100 300" xml:space="preserve">
<g id="Layer_1">
	<rect fill="#FFFFFF" width="100" height="300"/>
</g>
<g id="Layer_3">
	<rect x="47.602" y="50" fill="#B2B2B2" stroke="#000000" width="4.795" height="200"/>
</g>
<g id="Layer_5">
	<g>
		<g>
			<polygon fill="#8C8C8C" points="72,34 28,34 22,40 22,160 78,160 78,40 			"/>
		</g>
		<g>
			<polygon fill="none" stroke="#000000" points="72,34 28,34 22,40 22,160 78,160 78,40 			"/>
		</g>
	</g>
	<rect x="33" y="183" fill="#8C8C8C" stroke="#000000" width="34" height="34"/>
</g>
<g id="Layer_4">
	<circle fill="#666666" stroke="#000000" cx="38" cy="56" r="8"/>
	<circle fill="#FF0000" stroke="#000000" cx="38" cy="80" r="8"/>
	<circle fill="#FF0000" stroke="#000000" cx="62" cy="80" r="8"/>
	<circle fill="#666666" stroke="#000000" cx="38" cy="141" r="8"/>
	<circle fill="#666666" stroke="#000000" cx="38" cy="125" r="5"/>
	<circle fill="#666666" stroke="#000000" cx="62" cy="101" r="5"/>
	<circle fill="#666666" stroke="#000000" cx="50" cy="193" r="5"/>
	<circle fill="#666666" stroke="#000000" cx="43" cy="207" r="5"/>
	<circle fill="#666666" stroke="#000000" cx="57" cy="207" r="5"/>
</g>
</svg>
