<?xml version="1.0" encoding="utf-8"?>
<!-- Generator: Adobe Illustrator 22.1.0, SVG Export Plug-In . SVG Version: 6.00 Build 0)  -->
<svg version="1.1" id="Layer_1" xmlns="http://www.w3.org/2000/svg" xmlns:xlink="http://www.w3.org/1999/xlink" x="0px" y="0px"
	 viewBox="0 0 600 600" style="enable-background:new 0 0 600 600;" xml:space="preserve">
<style type="text/css">
	.st0{fill:#BC2300;}
	.st1{fill:#3A3A3A;}
</style>
<g>
	<path class="st0" d="M323.8,121.1c0,9.1-4.5,17.3-11.3,22.3c39.1,5.9,71.3,32.6,85.2,68.3v-66h-22.9c-17.9-29-41.3-37-55.1-39.2
		C322.2,110.9,323.8,115.8,323.8,121.1z"/>
	<path class="st0" d="M279.6,143.4c-6.9-5.1-11.3-13.2-11.3-22.3c0-5.3,1.5-10.2,4.1-14.5c-13.8,2.1-37.2,10.1-55.1,39.2h-22.9v66
		C208.3,176,240.5,149.3,279.6,143.4z"/>
	<path class="st1" d="M396.3,294h46v-21.9c0-12.3-9.9-22.3-22.3-22.3v-25.7h-18.4c2.2,8.6,3.3,17.8,3.3,27.1
		C405,266.4,401.9,280.8,396.3,294z"/>
	<path class="st1" d="M187,251.2c0-9.3,1.2-18.5,3.3-27.1H172v25.7c-12.3,0-22.3,9.9-22.3,22.3V294h46
		C190.1,280.8,187,266.4,187,251.2z"/>
	<circle class="st1" cx="432.5" cy="328.7" r="21.1"/>
	<circle class="st1" cx="159.6" cy="328.7" r="21.1"/>
	<path class="st0" d="M418.1,352.5c-8-4.9-13.3-13.7-13.3-23.6c0-10,5.4-18.8,13.3-23.6h-27.3c-12.1,21.3-31.3,38.2-54.2,47.4h81.5
		V352.5z"/>
	<path class="st0" d="M187.3,328.7c0,10-5.4,18.8-13.3,23.6h81.5c-22.9-9.2-42.1-26.1-54.2-47.4H174
		C181.9,310,187.3,318.7,187.3,328.7z"/>
	<path class="st0" d="M209.9,409.1l-19.3,41.6l105.4,46.4l105.4-46.4l-19.3-41.6h-11.5c0,1.5,0,3,0,4.6c0,20.5-1.6,37.1-3.6,37.1
		c-1.9,0-3.6-16.6-3.6-37.1c0-1.5,0-3.1,0-4.6h-10.2c0,1.5,0,3,0,4.6c0,20.5-1.6,37.1-3.6,37.1c-1.9,0-3.6-16.6-3.6-37.1
		c0-1.5,0-3.1,0-4.6H336c0,1.5,0,3,0,4.6c0,20.5-1.6,37.1-3.6,37.1c-1.9,0-3.6-16.6-3.6-37.1c0-1.5,0-3.1,0-4.6h-6v30.6h-52.6v-30.6
		h-7.2c0,1.5,0,3,0,4.6c0,20.5-1.6,37.1-3.6,37.1s-3.6-16.6-3.6-37.1c0-1.5,0-3.1,0-4.6h-10.2c0,1.5,0,3,0,4.6
		c0,20.5-1.6,37.1-3.6,37.1c-1.9,0-3.6-16.6-3.6-37.1c0-1.5,0-3.1,0-4.6h-10.2c0,1.5,0,3,0,4.6c0,20.5-1.6,37.1-3.6,37.1
		c-1.9,0-3.6-16.6-3.6-37.1c0-1.5,0-3.1,0-4.6H209.9z"/>
	<path class="st1" d="M275.6,72.9v29.5c5.1-5.6,12.4-9,20.5-9s15.4,3.5,20.5,9V72.9l10.4-15.4c1.1-1.7,1.7-3.8,1.7-5.8v-42
		c0-3.1-14.6-5.7-32.6-5.7s-32.6,2.5-32.6,5.7v42c0,2,0.6,4.1,1.7,5.8L275.6,72.9z M296.1,47.6c8.2,0,15.1,5.5,17.2,13
		c-5-3-10.9-4.9-17.2-4.9s-12.2,1.8-17.2,4.9C280.9,53.1,287.8,47.6,296.1,47.6z"/>
	<path class="st0" d="M317.1,121.1c0-11.7-9.4-21.1-21.1-21.1s-21.1,9.4-21.1,21.1s9.4,21.1,21.1,21.1S317.1,132.8,317.1,121.1z
		 M288.3,121.1c0-4.3,3.5-7.6,7.6-7.6c4.3,0,7.6,3.5,7.6,7.6c0,4.3-3.5,7.6-7.6,7.6S288.3,125.4,288.3,121.1z"/>
	<path class="st1" d="M405.2,459.5l-7.8,3.5l8.3,18.4h-50.1L331,492.2h79.7l13.1,28.9H168.3l13.1-28.9h79.8l-24.7-10.9h-50.2
		l8.3-18.5l-7.8-3.5l-61.5,136h9.3l10.8-23.7h301.1l10.8,23.7h9.3L405.2,459.5z M150.3,560.8l13.1-28.9h265.2l13.1,28.9H150.3z"/>
	<path class="st0" d="M194.8,251.2c0,55.9,45.3,101.2,101.2,101.2s101.2-45.3,101.2-101.2S351.9,150,296,150
		S194.8,195.4,194.8,251.2z M214.1,257.3c-3.3,0-6-2.7-6-6c0-3.3,2.7-6,6-6c3.3,0,6,2.7,6,6C220.1,254.6,217.4,257.3,214.1,257.3z
		 M228.1,297.4c-2.8,1.6-6.6,0.7-8.2-2.2c-1.6-2.8-0.7-6.6,2.2-8.2c2.8-1.6,6.6-0.7,8.2,2.2C231.9,292.1,231,295.8,228.1,297.4z
		 M260.2,325.2c-1.6,2.8-5.4,3.9-8.2,2.2c-2.8-1.6-3.9-5.4-2.2-8.2c1.6-2.8,5.4-3.9,8.2-2.2C260.9,318.6,262,322.3,260.2,325.2z
		 M296.1,339.2c-3.3,0-6-2.7-6-6c0-3.3,2.7-6,6-6c3.3,0,6,2.7,6,6C302,336.4,299.3,339.2,296.1,339.2z M382.7,251.2
		c0,28.4-13.7,53.7-34.8,69.5c16.7-18.3,27-42.7,27-69.5s-10.2-51.1-27-69.5C369.1,197.6,382.7,222.8,382.7,251.2z M296.1,163.3
		c3.3,0,6,2.7,6,6c0,3.3-2.7,6-6,6c-3.3,0-6-2.7-6-6C290,166,292.7,163.3,296.1,163.3z M252,175.1c2.8-1.6,6.6-0.7,8.2,2.2
		c1.6,2.8,0.7,6.6-2.2,8.2c-2.8,1.6-6.6,0.7-8.2-2.2C248.2,180.5,249.2,176.7,252,175.1z M296.1,189.8c33.9,0,61.4,27.5,61.4,61.4
		s-27.5,61.4-61.4,61.4s-61.4-27.5-61.4-61.4S262.1,189.8,296.1,189.8z M228.1,205c2.8,1.6,3.9,5.4,2.2,8.2
		c-1.6,2.8-5.4,3.9-8.2,2.2c-2.8-1.6-3.9-5.4-2.2-8.2C221.5,204.4,225.2,203.4,228.1,205z"/>
	<path class="st1" d="M442.3,382.5l-21.1-18.7h-107h-36.4h-107l-21.1,18.7h214.4c1.3,0,2.3,1,2.3,2.3c0,1.3-1,2.3-2.3,2.3H149.8
		v12.2h128.1h36.4h128.1v-16.8H442.3z"/>
	<rect x="279.3" y="409.1" class="st0" width="33.3" height="19.1"/>
</g>
</svg>
