<?xml version="1.0" encoding="utf-8"?>
<!-- Generator: Adobe Illustrator 22.1.0, SVG Export Plug-In . SVG Version: 6.00 Build 0)  -->
<svg version="1.1" id="Layer_1" xmlns="http://www.w3.org/2000/svg" xmlns:xlink="http://www.w3.org/1999/xlink" x="0px" y="0px"
	 viewBox="0 0 600 600" style="enable-background:new 0 0 600 600;" xml:space="preserve">
<style type="text/css">
	.st0{fill:#3A3A3A;}
	.st1{fill:#0B6D38;}
</style>
<g>
	<path class="st0" d="M351.1,34.8H240.6c-2.3,0-4.1-1.8-4.1-4.1V10.1c0-2.3,1.8-4.1,4.1-4.1h110.6c2.3,0,4.1,1.8,4.1,4.1v20.6
		C355.2,33,353.4,34.8,351.1,34.8z"/>
	<rect x="250.1" y="43" class="st1" width="91.6" height="24.3"/>
	<path class="st0" d="M250.1,74.3V108c13.8-6.7,29.4-10.4,45.8-10.4c16.4,0,32,3.8,45.8,10.4V74.3H250.1z"/>
	<path class="st1" d="M442.8,225.7h-24.3v-24.4c0-0.3-0.1-0.6-0.3-1l-24.3-38.8c-0.3-0.5-1-0.9-1.6-0.9h-11.8
		c-15.6-31-47.6-52.3-84.7-52.3s-69.1,21.3-84.7,52.3h-11.8c-0.6,0-1.2,0.3-1.6,0.9l-24.3,38.8c-0.2,0.3-0.3,0.6-0.3,1v24.3h-24.3v8
		h29.9l-24.5,89.3v52.6h283v-52.6l-24.5-89.3h29.9v-7.9H442.8z M295.8,125.2c43,0,78,35,78,78s-35,78-78,78c-43,0-78-35-78-78
		C217.9,160.2,252.9,125.2,295.8,125.2z M192,274.8c8,0.2,14.4,1.7,14.4,3.3c0,1.6-6.5,2.8-14.5,2.6c-8-0.2-14.4-1.7-14.4-3.3
		C177.5,275.8,184,274.6,192,274.8z M188.5,290.2c8,0.2,14.4,1.7,14.4,3.3c0,1.6-6.5,2.8-14.5,2.6c-8-0.2-14.4-1.7-14.4-3.3
		C174.1,291.1,180.6,289.9,188.5,290.2z M185.1,305.5c8,0.2,14.4,1.7,14.4,3.3c0,1.6-6.5,2.8-14.5,2.6c-8-0.2-14.4-1.7-14.4-3.3
		C170.7,306.5,177.2,305.3,185.1,305.5z M188.5,362c-10.2,0-18.4-8.2-18.4-18.4s8.2-18.4,18.4-18.4s18.4,8.2,18.4,18.4
		S198.6,362,188.5,362z M295.8,340.8l-75.5-20.1h150.9L295.8,340.8z M403.3,362c-10.2,0-18.4-8.2-18.4-18.4s8.2-18.4,18.4-18.4
		s18.4,8.2,18.4,18.4S413.5,362,403.3,362z M421.1,308.1c0,1.6-6.4,3.1-14.4,3.3s-14.5-1-14.5-2.6c0-1.6,6.4-3.1,14.4-3.3
		C414.5,305.3,421,306.5,421.1,308.1z M417.7,292.7c0,1.6-6.4,3.1-14.4,3.3c-8,0.2-14.5-1-14.5-2.6c0-1.6,6.4-3.1,14.4-3.3
		C411.2,289.9,417.7,291.1,417.7,292.7z M414.3,277.4c0,1.6-6.4,3.1-14.4,3.3c-8,0.2-14.5-1-14.5-2.6c0-1.6,6.4-3.1,14.4-3.3
		C407.8,274.6,414.3,275.8,414.3,277.4z M412.7,225.7h-13.5c-2.8,12.9-7.9,24.9-14.9,35.6c2.5-0.9,7-1.6,12.2-1.7
		c8-0.2,14.5,1,14.5,2.6c0,1.6-6.4,3.1-14.4,3.3c-6.7,0.2-12.2-0.6-13.9-1.8c-2.4,3.5-5.1,6.6-7.7,9.8c-7,8.5-28,34.5-79.2,35.6
		c-22.2,0.5-43.3-6.4-59.9-18.7c-13-9.6-14.7-12.4-19.1-17c-2.9-2.9-5.3-6.4-7.7-9.8c-1.7,1.2-7.2,2.1-13.9,1.8
		c-8-0.2-14.4-1.7-14.4-3.3c0-1.6,6.5-2.8,14.5-2.6c5.2,0.1,9.6,0.9,12.2,1.7c-7-10.7-12.1-22.7-14.9-35.6H179v-23.8l21.4-37.4h9
		c-5.3,11.9-8.3,24.9-8.3,38.9c0,52.4,42.4,94.8,94.8,94.8s94.8-42.4,94.8-94.8c0-13.8-3-27-8.3-38.9h9l21.4,37.4L412.7,225.7
		L412.7,225.7z"/>
	<path class="st0" d="M295.8,276.4c40.3,0,73.1-32.8,73.1-73.1s-32.8-73.1-73.1-73.1c-40.3,0-73.1,32.8-73.1,73.1
		S255.6,276.4,295.8,276.4z M295.8,144c32.7,0,59.3,26.6,59.3,59.3s-26.6,59.3-59.3,59.3s-59.3-26.6-59.3-59.3S263.1,144,295.8,144z
		"/>
	<path class="st1" d="M407.7,432.9L400,438l13.7,30.5h-60.4l-17.9,11.7H419l14,31.1H158.1l14-31.1h83.6l-17.9-11.7h-60.4l14.1-30.1
		l-7.7-5l-72,158h10l11.6-25.6h324.1l11.6,25.6h10L407.7,432.9z M138.8,554l14-31.1h285.4l14,31.1H138.8z"/>
	<path class="st0" d="M437.4,387.2h-31.5H398H381c-0.6,22.9-2.5,39.4-4.6,39.4s-4-16.6-4.6-39.4h-17.9c-0.2,28.4-2.3,50.7-4.9,50.7
		c-2.5,0-4.6-22.2-4.9-50.7h-17.6c0,2.2,0,4.4,0,6.7c0,30.9-2.2,55.8-4.9,55.8c-2.7,0-4.9-25.1-4.9-55.8c0-2.3,0-4.5,0-6.7h-16.3
		c0.2,5.8,0.3,12.1,0.3,18.6c0,30.9-2.2,55.8-4.9,55.8s-4.9-25.1-4.9-55.8c0-6.5,0.1-12.7,0.3-18.6h-17.2c0,2.2,0,4.4,0,6.7
		c0,30.9-2.2,55.8-4.9,55.8s-4.9-25.1-4.9-55.8c0-2.3,0-4.5,0-6.7h-17.6c-0.2,28.4-2.3,50.7-4.9,50.7s-4.6-22.2-4.9-50.7h-17.9
		c-0.6,22.9-2.5,39.4-4.6,39.4s-4-16.6-4.6-39.4h-18.5h-6.6h-30.9V403h30.9v21.1l110.3,71.8l110.3-71.8V403h31.5v-15.8H437.4z"/>
</g>
</svg>
