<?xml version="1.0" encoding="utf-8"?>
<!-- Generator: Adobe Illustrator 22.1.0, SVG Export Plug-In . SVG Version: 6.00 Build 0)  -->
<svg version="1.1" id="Layer_1" xmlns="http://www.w3.org/2000/svg" xmlns:xlink="http://www.w3.org/1999/xlink" x="0px" y="0px"
	 viewBox="0 0 600 600" style="enable-background:new 0 0 600 600;" xml:space="preserve">
<style type="text/css">
	.st0{fill:#3A3A3A;}
	.st1{fill:#E56C00;}
	.st2{fill:#FF8B00;}
</style>
<g>
	<path class="st0" d="M327.3,206.1c-7.2,7.1-17.1,11.6-28,11.6s-20.8-4.4-28-11.6c-36.5,11.8-62.8,46-62.8,86.4
		c0,50.2,40.7,90.8,90.8,90.8c50.2,0,90.8-40.7,90.8-90.8C390.1,252.1,363.7,217.9,327.3,206.1z M299.2,358
		c-36.1,0-65.4-29.3-65.4-65.4s29.3-65.4,65.4-65.4c36.1,0,65.4,29.3,65.4,65.4C364.7,328.7,335.4,358,299.2,358z"/>
	<circle class="st1" cx="183.1" cy="367" r="23"/>
	<circle class="st1" cx="415.3" cy="367" r="23"/>
	<g>
		<path class="st0" d="M200.4,292.5c0-1.5,0-2.9,0.1-4.4c-12.4,1.8-21.9,12.5-21.9,25.4v23.6c1.5-0.2,3-0.3,4.5-0.3
			c16.7,0,30.2,13.6,30.2,30.2c0,6-1.8,11.7-4.8,16.4h51.8C225.1,368.2,200.4,333.3,200.4,292.5z"/>
		<path class="st0" d="M385.1,367c0-16.7,13.6-30.2,30.2-30.2c1.5,0,3.1,0.1,4.5,0.3v-23.6c0-12.9-9.5-23.6-21.9-25.4
			c0.1,1.5,0.1,2.9,0.1,4.4c0,40.7-24.7,75.7-59.9,90.8h51.8C386.9,378.6,385.1,373,385.1,367z"/>
	</g>
	<path class="st1" d="M335.7,132.3h-5.3V89.4l16.4-15.6v-0.2h-95.2v0.2L268,89.4v42.9h-5.3c-21.6,0-39.2,17.5-39.2,39.2v56.8
		c11.1-13.1,25.6-23.2,42-29.2c-3.9-6.1-6.2-13.4-6.2-21.3c0-22,17.8-39.8,39.8-39.8s39.8,17.8,39.8,39.8c0,7.8-2.3,15.1-6.2,21.3
		c16.5,5.9,30.9,16.1,42,29.2v-56.9C374.9,149.8,357.3,132.3,335.7,132.3z M240.7,195.4c0,0-1.9,1.4-3.9,3.3s-3.9,4.5-3.9,4.5v-31.7
		c0,0,0.6-13,7.8-16.6L240.7,195.4L240.7,195.4z M365.5,203.2c0,0-1.9-2.7-3.9-4.5c-2-1.9-3.9-3.3-3.9-3.3v-40.5
		c7.2,3.6,7.8,16.6,7.8,16.6L365.5,203.2L365.5,203.2z"/>
	<rect x="251.6" y="33.8" class="st0" width="95.2" height="32.2"/>
	<path class="st1" d="M341.1,17.3L341.1,17.3c-1.4-5.3-19.6-9.5-41.8-9.5s-40.4,4.2-41.7,9.5h-0.1v8.9h83.7v-8.9H341.1z"/>
	<path class="st0" d="M328.1,163.4c-5.3-10.6-16.3-17.8-28.9-17.8c-12.6,0-23.6,7.3-28.9,17.8H328.1z"/>
	<path class="st1" d="M267.8,170.1c-0.6,2.5-1,5.1-1,7.8c0,17.9,14.5,32.4,32.4,32.4s32.4-14.5,32.4-32.4c0-2.7-0.3-5.3-1-7.8H267.8
		z"/>
	<path class="st0" d="M386.5,447.6l-87.3,41l-87.3-41L191,474l108.2,50.9L407.4,474L386.5,447.6z M217.1,461l-7.7,11.7
		c-0.7,1-2.1,1.3-3.1,0.6l-0.1-0.1c-1-0.7-1.3-2.1-0.6-3.1l7.7-11.7c0.7-1,2.1-1.3,3.1-0.6l0.1,0.1C217.5,458.6,217.8,460,217.1,461
		z M241,472.1l-7.3,12c-0.6,1.1-2,1.4-3.1,0.8l-0.1-0.1c-1.1-0.6-1.4-2-0.8-3.1l7.3-12c0.6-1.1,2-1.4,3.1-0.8l0.1,0.1
		C241.3,469.7,241.7,471,241,472.1z M265.4,483.5L259,496c-0.6,1.1-1.9,1.5-3,1l-0.1-0.1c-1.1-0.6-1.5-1.9-1-3l6.4-12.5
		c0.6-1.1,1.9-1.5,3-1l0.1,0.1C265.5,481.1,266,482.4,265.4,483.5z M290,495.2l-6.1,12.7c-0.5,1.1-1.9,1.6-3,1l-0.1-0.1
		c-1.1-0.5-1.6-1.9-1-3l6.1-12.7c0.5-1.1,1.9-1.6,3-1l0.1,0.1C290.1,492.8,290.5,494.1,290,495.2z M317.7,509.5
		c-1.1,0.5-2.4,0-3-1.1l-6-12.7c-0.5-1.1,0-2.4,1.1-3c1.1-0.5,2.4-0.1,3,1.1l6,12.7C319.3,507.7,318.8,509,317.7,509.5z
		 M342.3,497.9c-1.1,0.6-2.4,0.2-3-0.9l-6.8-12.3c-0.6-1.1-0.2-2.4,0.9-3c1.1-0.6,2.4-0.2,3,0.9l6.8,12.3
		C343.8,495.9,343.4,497.3,342.3,497.9z M366.9,486.2c-1,0.7-2.4,0.3-3.1-0.7l-7.4-11.9c-0.7-1-0.3-2.4,0.7-3.1
		c1-0.7,2.4-0.3,3.1,0.7l7.4,11.9C368.3,484.2,367.9,485.5,366.9,486.2z M391.5,474.7c-1,0.7-2.4,0.4-3.1-0.6l-7.8-11.7
		c-0.7-1-0.4-2.4,0.6-3.1c1-0.7,2.4-0.4,3.1,0.6l7.8,11.7C392.8,472.7,392.5,474.1,391.5,474.7z"/>
	<path class="st1" d="M360.9,415.3h-61.7h-61.7l-20.6,26l82.3,38.7l82.3-38.7L360.9,415.3z M299.2,447.6L252.1,428h94.1L299.2,447.6
		z"/>
	<path class="st2" d="M299.2,352.5c-32.9,0-59.7-26.8-59.7-59.7s26.8-59.7,59.7-59.7s59.7,26.8,59.7,59.7S332.1,352.5,299.2,352.5z
		 M299.2,239.9c-29.2,0-53,23.8-53,53s23.8,53,53,53s53-23.8,53-53S328.4,239.9,299.2,239.9z"/>
	<path class="st0" d="M415.3,396.9c-6.7,0-12.9-2.2-17.9-5.9H201.5c-5.1,3.9-11.5,6.3-18.4,6.3c-1.5,0-3.1-0.1-4.5-0.3l0,0
		c0,5.7,4.6,10.4,10.4,10.4h219.2c5.7,0,10.4-4.6,10.4-10.4v-0.1C417.5,396.9,416.4,396.9,415.3,396.9z"/>
	<polygon class="st0" points="109.1,593.3 128.2,569.1 471.4,569.1 490.5,593.3 502.4,593.3 412.8,480 404.1,484.1 426.4,512.4 
		344,512.4 321,523.2 435,523.2 462.8,558.3 136.7,558.3 164.5,523.2 277.4,523.2 254.4,512.4 173.1,512.4 195.1,484.5 186.2,480.3 
		96.8,593.3 	"/>
</g>
</svg>
