<?xml version="1.0" encoding="utf-8"?>
<svg viewBox="-9.274 177.756 586.293 271.994" xmlns="http://www.w3.org/2000/svg">
  <path style="stroke: rgb(0, 0, 0); fill: none;" d="M 37.108 267.128 C 14.483 267.128 15.027 290.405 37.108 290.405"/>
  <path style="stroke: rgb(0, 0, 0); fill: none;" d="M 49.523 260.921 C 50.462 263.738 51.075 293.509 51.075 293.509 C 51.075 293.509 50.61 280.471 51.075 279.543 C 58.067 265.558 65.041 279.576 65.041 288.853"/>
  <path style="stroke: rgb(0, 0, 0); fill: none;" d="M 72.8 276.439 C 72.8 294.509 73.312 292.997 83.663 282.646"/>
  <path style="stroke: rgb(0, 0, 0); fill: none;" d="M 102.285 274.887 C 105.424 281.166 105.388 283.801 105.388 290.405"/>
  <path style="stroke: rgb(0, 0, 0); fill: none;" d="M 97.629 246.954 C 97.629 249.541 97.629 252.127 97.629 254.713"/>
  <path style="stroke: rgb(0, 0, 0); fill: none;" d="M 147.288 264.024 C 126.329 264.024 127.104 270.222 137.977 281.094 C 148.731 291.849 123.628 288.662 120.907 287.302"/>
  <path style="stroke: rgb(0, 0, 0); fill: none;" d="M 175.221 291.957 C 178.393 287.727 201.015 258.782 201.602 259.369 C 206.493 264.26 203.153 281.911 203.153 288.853"/>
  <path style="stroke: rgb(0, 0, 0); fill: none;" d="M 190.739 274.887 C 195.912 274.887 201.084 274.887 206.257 274.887"/>
  <path style="stroke: rgb(0, 0, 0); fill: none;" d="M 218.672 276.439 C 218.672 299.451 229.88 273.681 232.638 276.439 C 235.405 279.206 234.658 284.666 237.294 287.302"/>
  <path style="stroke: rgb(0, 0, 0); fill: none;" d="M 252.812 257.817 C 252.812 266.611 252.812 275.404 252.812 284.198"/>
  <path style="stroke: rgb(0, 0, 0); fill: none;" d="M 277.641 270.232 C 272.986 272.301 268.128 273.965 263.675 276.439 C 263.437 276.571 263.331 285.407 263.675 285.75 C 264.885 286.96 287.62 286.968 290.056 285.75 C 293.221 284.167 291.751 275.031 290.056 273.335 C 288.638 271.917 268.297 268.68 265.226 268.68 C 257.475 268.68 247.294 268.335 240.397 271.783"/>
  <path style="stroke: rgb(0, 0, 0); fill: none;" d="M 302.47 271.783 C 308.268 294.973 301.556 273.973 311.781 284.198 C 313.211 285.628 321.619 275.912 322.644 274.887 C 327.593 269.938 338.162 282.04 338.162 285.75"/>
  <path style="stroke: rgb(0, 0, 0); fill: none;" d="M 359.888 270.232 C 354.699 270.232 333.476 273.304 344.37 284.198 C 349.242 289.07 352.899 271.013 353.681 270.232 C 359.533 264.379 369.199 283.1 369.199 287.302"/>
  <path style="stroke: rgb(0, 0, 0); fill: none;" d="M 400.235 246.954 C 400.235 258.852 400.235 270.749 400.235 282.646"/>
  <path style="stroke: rgb(0, 0, 0); fill: none;" d="M 387.821 270.232 C 394.444 265.816 401.696 267.128 409.546 267.128"/>
</svg>